<?xml version="1.0" encoding="utf-8"?><svg viewBox="0 0 532 65" xmlns="http://www.w3.org/2000/svg" xmlns:xlink="http://www.w3.org/1999/xlink"><style>:root>svg{display:none}:root>svg:target{display:block}</style><svg fill="none" viewBox="0 0 8 5" id="angle" xmlns="http://www.w3.org/2000/svg"><path d="M7 1 4 4 1 1" stroke="#000" stroke-linecap="round" stroke-linejoin="round"/></svg><svg fill="none" viewBox="0 0 24 24" id="arrow-left" xmlns="http://www.w3.org/2000/svg"><g stroke="#F48C37"><circle cx="12" cy="12" r="10" transform="rotate(90 12 12)"/><path d="m13.5 15-3-3 3-3" stroke-linecap="round" stroke-linejoin="round"/></g></svg><svg fill="none" viewBox="0 0 24 24" id="arrow-right" xmlns="http://www.w3.org/2000/svg"><g stroke="#F48C37"><circle cx="12" cy="12" r="10" transform="rotate(-90 12 12)"/><path d="m10.5 9 3 3-3 3" stroke-linecap="round" stroke-linejoin="round"/></g></svg><svg fill="none" viewBox="0 0 24 24" id="check" xmlns="http://www.w3.org/2000/svg"><rect width="24" height="24" rx="5" fill="#FF7A0E"/><path fill-rule="evenodd" clip-rule="evenodd" d="m10.017 17.314 9.9-9.9L18.501 6l-8.81 8.81-4.278-4.279L4 11.946l5.657 5.656.324-.324.036.036Z" fill="#fff"/></svg><svg fill="none" viewBox="0 0 19 19" id="map-pin" xmlns="http://www.w3.org/2000/svg"><path fill-rule="evenodd" clip-rule="evenodd" d="M9.5 1.583c-3.498 0-6.334 3.169-6.334 6.73 0 3.532 2.021 7.372 5.175 8.846a2.731 2.731 0 0 0 2.317 0c3.153-1.474 5.175-5.314 5.175-8.847 0-3.56-2.836-6.729-6.334-6.729Zm0 7.917a1.583 1.583 0 1 0 0-3.167 1.583 1.583 0 0 0 0 3.167Z" fill="#F48C37"/></svg><svg fill="none" viewBox="0 0 22 25" id="play" xmlns="http://www.w3.org/2000/svg"><path d="M21 10.663c1.333.77 1.333 2.694 0 3.464L3 24.52c-1.333.77-3-.193-3-1.732V2.003C0 .463 1.667-.499 3 .271l18 10.392Z" fill="#fff"/></svg><svg fill="none" viewBox="0 0 24 24" id="search" xmlns="http://www.w3.org/2000/svg"><g stroke="#0C0C0C" stroke-width="1.5"><circle cx="11.5" cy="11.5" r="9.5"/><path d="M18.5 18.5 22 22" stroke-linecap="round"/></g></svg><svg fill="none" viewBox="0 0 16 15" id="star" xmlns="http://www.w3.org/2000/svg"><path d="M6.638.533a1 1 0 0 1 1.769 0l1.637 3.103a1 1 0 0 0 .714.519l3.456.598a1 1 0 0 1 .547 1.682l-2.445 2.516a1 1 0 0 0-.273.839l.5 3.472a1 1 0 0 1-1.431 1.04l-3.148-1.548a1 1 0 0 0-.883 0l-3.148 1.548a1 1 0 0 1-1.43-1.04L3 9.79a1 1 0 0 0-.272-.84L.284 6.436A1 1 0 0 1 .83 4.753l3.457-.598a1 1 0 0 0 .714-.52L6.638.534Z" fill="#F48C37"/></svg><svg fill="none" viewBox="0 0 532 65" id="top-text" xmlns="http://www.w3.org/2000/svg"><path d="M8.688 16.856a97.056 97.056 0 0 1 3.904-5.408c1.301-1.664 2.539-3.093 3.712-4.288 1.173-1.195 2.25-2.123 3.232-2.784.981-.661 1.835-.992 2.56-.992.277 0 .576.107.896.32.341.213.65.49.928.832.299.341.544.715.736 1.12.192.384.288.757.288 1.12a22.301 22.301 0 0 0-3.904 1.696 26.2 26.2 0 0 0-3.648 2.4 31.17 31.17 0 0 0-3.328 3.008 28.45 28.45 0 0 0-2.848 3.552c.341.875.757 1.813 1.248 2.816a38.767 38.767 0 0 0 1.664 2.88c.597.917 1.237 1.77 1.92 2.56.683.79 1.376 1.419 2.08 1.888-.107.235-.288.459-.544.672a5.764 5.764 0 0 1-.832.576 3.943 3.943 0 0 1-.96.448c-.32.107-.619.16-.896.16-.555 0-1.067-.267-1.536-.8-.47-.512-.95-1.29-1.44-2.336-.47-1.067-.97-2.379-1.504-3.936a353.432 353.432 0 0 1-1.728-5.504ZM3.856 29.592c-.81-.192-1.483-.533-2.016-1.024-.533-.47-1.024-1.067-1.472-1.792.192-.405.416-.939.672-1.6.277-.661.608-1.472.992-2.432.384-.981.843-2.144 1.376-3.488a2505.27 2505.27 0 0 0 1.856-4.768 96.91 96.91 0 0 0 1.088-2.912c.299-.79.544-1.557.736-2.304.213-.768.416-1.61.608-2.528.192-.917.416-2.08.672-3.488.896.17 1.707.565 2.432 1.184a8.888 8.888 0 0 1 1.92 2.24c-.235.299-.512.757-.832 1.376-.299.597-.64 1.323-1.024 2.176l-1.28 2.848c-.47 1.045-.96 2.155-1.472 3.328-1.152 2.56-2.059 4.907-2.72 7.04a51.7 51.7 0 0 0-1.536 6.144Zm29.194-15.52c.214 0 .459.043.736.128.299.064.566.16.8.288.235.107.427.224.576.352.17.128.256.245.256.352a43.616 43.616 0 0 0-1.184 2.72c-.362.896-.672 1.76-.928 2.592a25.4 25.4 0 0 0-.608 2.336c-.128.725-.192 1.355-.192 1.888 0 .597.064 1.099.192 1.504.128.384.342.661.64.832-.256.17-.586.31-.992.416-.405.107-.768.16-1.088.16-1.152 0-1.728-.79-1.728-2.368 0-1.216.406-2.88 1.216-4.992-.426.981-.917 1.91-1.472 2.784-.554.853-1.12 1.61-1.696 2.272a10.31 10.31 0 0 1-1.76 1.632c-.576.405-1.11.65-1.6.736-.79-.043-1.43-.416-1.92-1.12-.49-.725-.736-1.643-.736-2.752 0-1.195.256-2.453.768-3.776a17.327 17.327 0 0 1 1.952-3.68c.81-1.13 1.686-2.07 2.624-2.816.939-.768 1.846-1.173 2.72-1.216.214.064.448.192.704.384.278.192.534.416.768.672.256.256.47.523.64.8.17.256.267.48.288.672-.853.128-1.738.544-2.656 1.248a13.424 13.424 0 0 0-2.464 2.56 14.954 14.954 0 0 0-1.792 3.168c-.47 1.13-.704 2.187-.704 3.168 0 .405.15.661.448.768.619-.128 1.334-.65 2.144-1.568.81-.939 1.792-2.379 2.944-4.32.214-.384.448-.81.704-1.28.278-.47.555-.96.832-1.472.278-.512.544-1.024.8-1.536.278-.533.534-1.045.768-1.536Zm13.976 6.976a5.97 5.97 0 0 1-.32.864 11.107 11.107 0 0 1-2.017 3.072 9.759 9.759 0 0 1-2.816 2.112 6.874 6.874 0 0 1-3.264.832c-.448 0-.864-.043-1.248-.128a.284.284 0 0 1-.127-.032l-.32-.128a.71.71 0 0 0-.224-.096 7.303 7.303 0 0 1-1.056-.64 4.96 4.96 0 0 1-1.12-1.088c.02-.213.117-.416.287-.608.192-.213.363-.341.512-.384.534.576 1.088.981 1.664 1.216.043.021.257.075.64.16.427 0 .96-.203 1.6-.608.64-.405 1.26-.939 1.857-1.6a10.787 10.787 0 0 0 2.08-3.392c.49-1.259.735-2.57.735-3.936 0-1.728-.384-2.763-1.152-3.104l-.256-.16a.986.986 0 0 0-.384.16c-.938.512-1.632 1.707-2.08 3.584a2.172 2.172 0 0 1-.896-.256 1.85 1.85 0 0 1-.576-.576c-.149-.256-.202-.565-.16-.928.065-.384.203-.757.416-1.12.214-.384.48-.747.8-1.088.342-.341.736-.63 1.184-.864.897-.49 1.729-.608 2.497-.352.192.064.373.15.544.256l.511.256a5.832 5.832 0 0 1 1.6 1.472c.47.597.843 1.28 1.12 2.048.171.533.288 1.077.352 1.632 1.131-1.707 2.155-2.667 3.072-2.88.448-.107.971-.075 1.569.096.618.17 1.194.459 1.728.864-.406.725-.8 1.59-1.184 2.592a38.979 38.979 0 0 0-.96 2.72 43.56 43.56 0 0 0-.672 2.656c.02.064.074.085.16.064.042-.021.149-.117.32-.288.191-.192.373-.384.544-.576a17.754 17.754 0 0 0 1.504-2.24c.042-.064.085-.139.127-.224.235-.81.555-1.6.96-2.368.427-.832.928-1.621 1.505-2.368a13.72 13.72 0 0 1 1.887-1.952 9.635 9.635 0 0 1 2.08-1.312c.726-.32 1.44-.48 2.145-.48.469.064 1.013.363 1.631.896.64.533.96 1.312.96 2.336 0 .49-.074.97-.224 1.44-.128.448-.309.853-.544 1.216a3.16 3.16 0 0 1-.767.896c-.3.213-.598.32-.897.32-.256 0-.522-.075-.8-.224a2.286 2.286 0 0 1-.64-.64c1.28-1.941 1.803-3.04 1.569-3.296-.235-.277-.747-.064-1.536.64-.62.384-1.206.896-1.76 1.536a12.728 12.728 0 0 0-1.472 2.24c-.448.853-.886 2.176-1.313 3.968 0 .128-.01.267-.032.416v.416c0 .277.022.565.065.864.042.299.117.576.224.832.106.256.255.47.447.64.193.15.438.224.737.224a4.01 4.01 0 0 0 1.696-.384 8.917 8.917 0 0 0 1.568-.928c.511-.384.98-.79 1.407-1.216.449-.448.843-.853 1.184-1.216.214.192.395.373.544.544-.96 1.28-2.016 2.347-3.167 3.2-1.131.832-2.209 1.365-3.232 1.6-1.472-.17-2.614-.715-3.425-1.632a4.617 4.617 0 0 1-1.215-2.72c-1.152 1.728-2.187 2.699-3.105 2.912-.447.128-.98.107-1.6-.064a5.652 5.652 0 0 1-1.696-.896c.406-.725.8-1.579 1.184-2.56.385-1.003.694-1.91.928-2.72.257-.832.491-1.728.705-2.688-.022-.064-.075-.085-.16-.064-.043.021-.16.128-.352.32-.171.192-.342.373-.513.544a17.754 17.754 0 0 0-1.504 2.24c-.02.043-.042.085-.063.128Zm12.958 15.488c0-.128.042-.245.128-.352.085-.107.181-.213.288-.32.256.235.48.416.672.544.17.128.341.235.512.32.15.085.31.139.48.16.17.021.373.032.608.032 1.11 0 2.165-.299 3.168-.896 1.002-.576 1.941-1.419 2.816-2.528.896-1.11 1.706-2.464 2.432-4.064.725-1.6 1.365-3.413 1.92-5.44-.256.256-.576.544-.96.864-.363.299-.747.587-1.152.864-.406.277-.81.533-1.216.768a6.354 6.354 0 0 1-.992.512 2.432 2.432 0 0 1-1.024-.448 4.253 4.253 0 0 1-.8-.928 4.497 4.497 0 0 1-.544-1.216 5.57 5.57 0 0 1-.192-1.472c0-.832.15-1.685.448-2.56.32-.875.736-1.728 1.248-2.56a14.948 14.948 0 0 1 1.792-2.4 15.574 15.574 0 0 1 2.208-1.952c.79-.555 1.578-.992 2.368-1.312.81-.341 1.6-.512 2.368-.512.746 0 1.301.16 1.664.48.384.299.661.821.832 1.568-.235-.128-.534-.192-.896-.192-.512 0-1.11.203-1.792.608-.662.405-1.344.939-2.048 1.6a21.318 21.318 0 0 0-2.048 2.24 22.513 22.513 0 0 0-1.824 2.56 20.448 20.448 0 0 0-1.28 2.56c-.32.832-.48 1.579-.48 2.24 0 .15.01.245.032.288.021.021.053.032.096.032.192 0 .448-.107.768-.32a12.7 12.7 0 0 0 1.12-.8c.426-.341.864-.725 1.312-1.152.448-.448.874-.896 1.28-1.344a21.72 21.72 0 0 0 2.496-3.424c.768-1.28 1.376-2.517 1.824-3.712a6.35 6.35 0 0 1 1.536.288c.448.15.757.31.928.48a138.335 138.335 0 0 0-1.76 4.192c-.427 1.13-.8 2.133-1.12 3.008a164.32 164.32 0 0 1-1.632 4.192 39.513 39.513 0 0 1-1.536 3.52 22.519 22.519 0 0 1-1.696 3.008 20.34 20.34 0 0 1-2.048 2.688 5.958 5.958 0 0 1-1.248 1.056c-.448.32-.918.587-1.408.8a7.33 7.33 0 0 1-1.408.48c-.448.107-.864.16-1.248.16a6.705 6.705 0 0 1-1.568-.192 6.273 6.273 0 0 1-1.472-.48 4.792 4.792 0 0 1-1.216-.704c-.342-.256-.587-.533-.736-.832Zm26.854-13.984c.533-.875.853-1.568.96-2.08.128-.533.16-.97.096-1.312-.064-.576-.33-.79-.8-.64a1.59 1.59 0 0 0-.544.32c-.17.15-.341.31-.512.48-.17.17-.341.33-.512.48a1.05 1.05 0 0 0-.16.128 3.803 3.803 0 0 1-.128.288c-.107.235-.235.576-.384 1.024-.15.448-.299.917-.448 1.408-.15.49-.277.97-.384 1.44-.085.47-.128.843-.128 1.12 0 .17.021.299.064.384.064.085.117.15.16.192.32-.128.725-.48 1.216-1.056.49-.576.992-1.301 1.504-2.176Zm-.736-4.288c.17-.192.341-.373.512-.544.299-.299.576-.512.832-.64.619-.064 1.099.053 1.44.352.341.299.555.757.64 1.376 0 .064.01.128.032.192.107-.192.213-.373.32-.544.256-.47.47-.939.64-1.408.085-.256.192-.555.32-.896.15-.363.32-.736.512-1.12.213-.384.448-.768.704-1.152.277-.405.597-.779.96-1.12.277 0 .576.032.896.096.32.064.619.15.896.256.299.085.555.192.768.32.213.107.373.224.48.352-.384.939-.81 1.867-1.28 2.784a62.82 62.82 0 0 0-1.312 2.72c-.405.875-.747 1.75-1.024 2.624a8.447 8.447 0 0 0-.416 2.56c0 .448.032.843.096 1.184.085.32.17.597.256.832.085.213.16.395.224.544.085.15.128.277.128.384 0 .021-.021.053-.064.096-.021.021-.043.032-.064.032a2.29 2.29 0 0 1-.576-.096 6.228 6.228 0 0 1-.8-.288 9.852 9.852 0 0 1-.864-.384 9.904 9.904 0 0 1-.8-.48 2.583 2.583 0 0 1-.832-1.28c-.128-.512-.192-.95-.192-1.312 0-.448.053-.832.16-1.152-.085 0-.277.17-.576.512-.299.341-.63.747-.992 1.216a77.116 77.116 0 0 1-1.792 2.368 4.608 4.608 0 0 1-.8.704c-.235.17-.427.267-.576.288a4.3 4.3 0 0 1-1.088-.224 4.254 4.254 0 0 1-1.056-.48 4.208 4.208 0 0 1-.864-.768 2.518 2.518 0 0 1-.48-1.024c0-.597.01-1.088.032-1.472.043-.384.117-.8.224-1.248a27 27 0 0 1 .832-2.752 31.272 31.272 0 0 1 1.312-3.008 20.747 20.747 0 0 1 1.632-2.784c.619-.875 1.27-1.557 1.952-2.048.192 0 .416.021.672.064.256.021.512.075.768.16.277.085.533.192.768.32.256.107.47.256.64.448-.192.213-.672.928-1.44 2.144-.555.832-1.141 1.93-1.76 3.296Zm19.269 8.032a2.576 2.576 0 0 1-.832-1.28c-.128-.512-.192-.95-.192-1.312 0-.448.053-.832.16-1.152-.086 0-.278.17-.576.512-.299.341-.63.747-.992 1.216a82.307 82.307 0 0 1-1.792 2.368 4.633 4.633 0 0 1-.8.704c-.235.17-.427.267-.576.288a4.3 4.3 0 0 1-1.088-.224 4.254 4.254 0 0 1-1.057-.48 4.208 4.208 0 0 1-.864-.768 2.518 2.518 0 0 1-.48-1.024c0-.597.011-1.088.032-1.472.043-.384.118-.8.225-1.248a27 27 0 0 1 .832-2.752 31.272 31.272 0 0 1 1.312-3.008 20.696 20.696 0 0 1 1.632-2.784c.618-.875 1.269-1.557 1.952-2.048.192 0 .416.021.672.064.256.021.512.075.768.16.277.085.533.192.768.32.256.107.469.256.64.448-.192.213-.683.928-1.472 2.144-.768 1.216-1.632 2.965-2.592 5.248-.107.235-.235.576-.384 1.024-.15.448-.299.917-.448 1.408-.15.49-.278.97-.384 1.44-.086.47-.128.843-.128 1.12 0 .17.02.299.064.384.064.085.117.15.16.192.32-.128.725-.48 1.216-1.056.49-.576 1.173-1.461 2.048-2.656.213-.299.458-.64.736-1.024.298-.384.597-.79.896-1.216.298-.448.576-.907.832-1.376.277-.47.501-.939.672-1.408.085-.256.192-.555.32-.896.149-.363.32-.736.512-1.12.213-.384.448-.768.704-1.152.277-.405.597-.779.96-1.12.277 0 .576.032.895.096.321.064.619.15.897.256.298.085.554.192.768.32.213.107.373.224.48.352a36.336 36.336 0 0 1-1.28 2.784c-.47.917-.907 1.824-1.312 2.72-.406.875-.747 1.75-1.024 2.624a8.425 8.425 0 0 0-.416 2.56c0 .448.032.843.096 1.184.085.32.17.597.256.832.085.213.16.395.224.544.085.15.128.277.128.384 0 .021-.022.053-.064.096-.022.021-.043.032-.064.032-.15 0-.342-.032-.576-.096a6.174 6.174 0 0 1-.8-.288 9.671 9.671 0 0 1-.864-.384 9.784 9.784 0 0 1-.8-.48Zm3.968-16.064a5.556 5.556 0 0 1-1.344-.32 4.978 4.978 0 0 1-1.344-.832 6.886 6.886 0 0 1-1.12-1.408c-.32-.576-.555-1.27-.704-2.08.17-.363.48-.597.928-.704.469-.107.896-.203 1.28-.288.298 1.365.725 2.325 1.28 2.88.576.555 1.194.875 1.856.96.81-.192 1.472-.565 1.984-1.12.533-.576.981-1.28 1.344-2.112.213.064.384.267.512.608-.214 1.045-.736 1.973-1.568 2.784-.832.79-1.867 1.333-3.104 1.632Zm15.949 1.248c.555.17 1.077.555 1.568 1.152a5.733 5.733 0 0 1 1.088 1.92c-.235.576-.597 1.27-1.088 2.08-.491.81-.981 1.643-1.472 2.496a57.596 57.596 0 0 0-1.344 2.4c-.384.747-.608 1.365-.672 1.856a62.153 62.153 0 0 0 2.336-2.688c.405-.49.779-.928 1.12-1.312.341-.405.608-.704.8-.896.405-.427.885-.917 1.44-1.472a20.303 20.303 0 0 1 1.728-1.6 12.072 12.072 0 0 1 1.856-1.28c.619-.363 1.184-.544 1.696-.544.555 0 1.013.192 1.376.576.384.363.683.747.896 1.152 0 .043-.085.107-.256.192-.149.064-.373.267-.672.608-.299.384-.64.917-1.024 1.6a34.433 34.433 0 0 0-1.088 2.176 18.565 18.565 0 0 0-.864 2.368c-.235.81-.352 1.547-.352 2.208 0 .533.064.875.192 1.024.149.15.352.224.608.224.235 0 .48-.053.736-.16.256-.107.459-.16.608-.16.085.043.149.139.192.288a.796.796 0 0 1 .096.352c-.171.15-.373.299-.608.448-.235.15-.48.288-.736.416a5.86 5.86 0 0 1-.768.32 1.894 1.894 0 0 1-.64.128c-.619 0-1.131-.096-1.536-.288a2.39 2.39 0 0 1-.928-.704 2.778 2.778 0 0 1-.448-1.056 6.543 6.543 0 0 1-.064-2.208 7.41 7.41 0 0 1 .256-1.12c.128-.448.309-.97.544-1.568.235-.619.533-1.355.896-2.208-.043 0-.331.15-.864.448-.533.299-1.109.757-1.728 1.376a41.636 41.636 0 0 0-2.72 2.848c-.789.939-1.6 1.984-2.432 3.136a33.168 33.168 0 0 1-1.248 1.664c-.341.47-.64.779-.896.928a2.336 2.336 0 0 1-.992-1.088 6.486 6.486 0 0 1-.48-1.408c0-.405.053-.917.16-1.536.128-.619.288-1.301.48-2.048.213-.768.469-1.568.768-2.4.299-.832.629-1.664.992-2.496.811-1.877 1.547-3.35 2.208-4.416.683-1.067 1.109-1.643 1.28-1.728Zm20.801 14.816a2.59 2.59 0 0 1-.832-1.28c-.128-.512-.192-.95-.192-1.312 0-.448.054-.832.16-1.152-.085 0-.277.17-.576.512a26.76 26.76 0 0 0-.992 1.216 72.54 72.54 0 0 1-1.792 2.368 4.597 4.597 0 0 1-.8.704c-.234.17-.426.267-.576.288a4.302 4.302 0 0 1-1.088-.224 4.277 4.277 0 0 1-1.056-.48 4.208 4.208 0 0 1-.864-.768 2.536 2.536 0 0 1-.48-1.024c0-.597.011-1.088.032-1.472.043-.384.118-.8.224-1.248.192-.81.47-1.728.832-2.752a31.447 31.447 0 0 1 1.312-3.008 20.811 20.811 0 0 1 1.632-2.784c.619-.875 1.27-1.557 1.952-2.048.192 0 .416.021.672.064.256.021.512.075.768.16.278.085.534.192.768.32.256.107.47.256.64.448-.192.213-.682.928-1.472 2.144-.768 1.216-1.632 2.965-2.592 5.248a11.58 11.58 0 0 0-.384 1.024 60.65 60.65 0 0 0-.448 1.408c-.149.49-.277.97-.384 1.44-.085.47-.128.843-.128 1.12 0 .17.022.299.064.384.064.085.118.15.16.192.32-.128.726-.48 1.216-1.056.491-.576 1.174-1.461 2.048-2.656l.736-1.024c.299-.384.598-.79.896-1.216.299-.448.576-.907.832-1.376.278-.47.502-.939.672-1.408.086-.256.192-.555.32-.896.15-.363.32-.736.512-1.12.214-.384.448-.768.704-1.152a6.9 6.9 0 0 1 .96-1.12c.278 0 .576.032.896.096.32.064.619.15.896.256.299.085.555.192.768.32.214.107.374.224.48.352-.384.939-.81 1.867-1.28 2.784a64.012 64.012 0 0 0-1.312 2.72c-.405.875-.746 1.75-1.024 2.624a8.456 8.456 0 0 0-.416 2.56c0 .448.032.843.096 1.184.086.32.171.597.256.832.086.213.16.395.224.544.086.15.128.277.128.384 0 .021-.021.053-.064.096-.021.021-.042.032-.064.032-.149 0-.341-.032-.576-.096a6.282 6.282 0 0 1-.8-.288 9.932 9.932 0 0 1-.864-.384 9.957 9.957 0 0 1-.8-.48Zm25.605-9.12c-.342.021-.758.245-1.248.672-.491.405-1.024.939-1.6 1.6a55.624 55.624 0 0 0-1.76 2.144c-.598.79-1.184 1.579-1.76 2.368-.555.768-1.078 1.493-1.568 2.176a28.15 28.15 0 0 1-1.248 1.632 3.426 3.426 0 0 1-1.216-.832 3.408 3.408 0 0 1-.736-1.408c.106-.661.256-1.344.448-2.048.192-.725.437-1.472.736-2.24.32-.768.704-1.568 1.152-2.4a28.593 28.593 0 0 1 1.696-2.688c-.32.021-.758.256-1.312.704-.555.427-1.152.992-1.792 1.696a33.887 33.887 0 0 0-1.984 2.336 60.405 60.405 0 0 0-1.92 2.528 73.115 73.115 0 0 0-1.984 2.912c-.512.832-.886 1.323-1.12 1.472-.555-.405-.939-.843-1.152-1.312a6.682 6.682 0 0 1-.48-1.568c.021-.512.096-1.152.224-1.92.149-.768.352-1.557.608-2.368a31.547 31.547 0 0 1 1.888-4.64 116.39 116.39 0 0 1 2.272-4.224c.597.128 1.13.33 1.6.608.49.277 1.002.683 1.536 1.216-.214.661-.544 1.365-.992 2.112-.448.725-.918 1.493-1.408 2.304-.491.81-.939 1.643-1.344 2.496a9.068 9.068 0 0 0-.8 2.592 176.62 176.62 0 0 1 2.112-2.944 55.498 55.498 0 0 1 2.528-3.136c.874-.981 1.738-1.813 2.592-2.496.853-.683 1.621-1.024 2.304-1.024.256 0 .533.043.832.128.298.085.576.192.832.32s.469.256.64.384c.17.107.266.192.288.256-.107.427-.363 1.013-.768 1.76-.384.725-.8 1.493-1.248 2.304-.448.81-.864 1.6-1.248 2.368-.384.747-.608 1.344-.672 1.792 1.045-1.43 2.026-2.72 2.944-3.872.917-1.173 1.781-2.176 2.592-3.008.81-.832 1.557-1.472 2.24-1.92.704-.448 1.365-.672 1.984-.672.426 0 .821.117 1.184.352.384.213.65.533.8.96-.192.64-.512 1.408-.96 2.304-.427.896-.864 1.845-1.312 2.848a46.66 46.66 0 0 0-1.216 2.912c-.342.96-.512 1.824-.512 2.592 0 .448.064.747.192.896.128.128.309.192.544.192.256 0 .49-.043.704-.128.234-.107.405-.16.512-.16a.477.477 0 0 1 .224.32c.021.128.032.245.032.352a6.76 6.76 0 0 1-1.312.832c-.448.235-.95.352-1.504.352-.512 0-.939-.085-1.28-.256a2.301 2.301 0 0 1-.8-.704 2.76 2.76 0 0 1-.448-1.024 5.709 5.709 0 0 1-.128-1.248c0-.725.096-1.44.288-2.144.192-.725.416-1.408.672-2.048.277-.661.565-1.27.864-1.824.298-.576.554-1.088.768-1.536Zm9.749 10.944c-1.216-.128-2.187-.661-2.912-1.6-.726-.939-1.088-2.133-1.088-3.584 0-.853.128-1.739.384-2.656s.618-1.803 1.088-2.656a14.667 14.667 0 0 1 1.664-2.464c.64-.768 1.333-1.43 2.08-1.984 1.173-.875 2.272-1.312 3.296-1.312.682.363 1.354 1.12 2.016 2.272h.288c.085-.021.181-.032.288-.032 1.13 0 1.696 1.003 1.696 3.008 0 1.344-.224 2.624-.672 3.84a11.172 11.172 0 0 1-1.824 3.264 10.771 10.771 0 0 1-2.784 2.496 11.078 11.078 0 0 1-3.52 1.408Zm1.632-10.08c-.363.49-.704 1.024-1.024 1.6a14.56 14.56 0 0 0-.832 1.76 11.099 11.099 0 0 0-.544 1.696 6.234 6.234 0 0 0-.192 1.44c0 .512.085 1.003.256 1.472.17.47.362.736.576.8a6.972 6.972 0 0 0 2.624-1.184 8.574 8.574 0 0 0 2.08-2.208 10.302 10.302 0 0 0 1.376-2.976c.341-1.11.512-2.293.512-3.552 0-.555-.032-.992-.096-1.312a2.426 2.426 0 0 0-.32-.832 7.043 7.043 0 0 0-2.528 1.344 13.443 13.443 0 0 0-1.888 1.952Zm17.037 1.12c.981-1.664 1.536-2.667 1.664-3.008.149-.363.32-.736.512-1.12.213-.384.448-.768.704-1.152.277-.405.597-.779.96-1.12.277 0 .576.032.895.096.321.064.619.15.897.256.298.085.554.192.768.32.213.107.373.224.48.352a36.336 36.336 0 0 1-1.28 2.784c-.47.917-.907 1.813-1.312 2.688a1.293 1.293 0 0 1-.192.32l-.256.64c-.107.235-.235.576-.384 1.024-.15.448-.299.917-.448 1.408-.15.49-.278.97-.384 1.44a6.55 6.55 0 0 0-.128 1.12c0 .17.021.299.064.384.064.085.117.15.16.192.32-.128.725-.48 1.216-1.056.49-.576 1.173-1.461 2.048-2.656.213-.299.458-.64.736-1.024.298-.384.597-.79.896-1.216.298-.448.576-.907.832-1.376.277-.47.501-.939.672-1.408.085-.256.192-.555.32-.896.149-.363.32-.736.512-1.12.213-.384.448-.768.704-1.152.277-.405.597-.779.96-1.12.277 0 .576.032.896.096.32.064.618.15.896.256.298.085.554.192.768.32.213.107.373.224.48.352a36.336 36.336 0 0 1-1.28 2.784c-.47.917-.907 1.824-1.312 2.72-.406.875-.747 1.75-1.024 2.624a8.425 8.425 0 0 0-.416 2.56c0 .448.032.843.096 1.184.085.32.17.597.256.832.085.213.16.395.224.544.085.15.128.277.128.384 0 .021-.022.053-.064.096-.022.021-.043.032-.064.032-.15 0-.342-.032-.576-.096a6.174 6.174 0 0 1-.8-.288 9.671 9.671 0 0 1-.864-.384 9.784 9.784 0 0 1-.8-.48 2.576 2.576 0 0 1-.832-1.28c-.128-.512-.192-.95-.192-1.312 0-.448.053-.832.16-1.152-.086 0-.278.17-.576.512-.299.341-.63.747-.992 1.216a82.307 82.307 0 0 1-1.792 2.368 4.633 4.633 0 0 1-.8.704c-.235.17-.427.267-.576.288a4.293 4.293 0 0 1-1.088-.224 4.244 4.244 0 0 1-1.056-.48 4.208 4.208 0 0 1-.864-.768 2.51 2.51 0 0 1-.48-1.024c0-.597.021-1.088.064-1.472.021-.299.064-.619.128-.96a6.213 6.213 0 0 0-.32.352c-.299.341-.63.747-.992 1.216a82.307 82.307 0 0 1-1.792 2.368 4.633 4.633 0 0 1-.8.704c-.235.17-.427.267-.576.288a4.293 4.293 0 0 1-1.088-.224 4.244 4.244 0 0 1-1.056-.48 4.208 4.208 0 0 1-.864-.768 2.51 2.51 0 0 1-.48-1.024c0-.597.01-1.088.032-1.472.042-.384.117-.8.224-1.248.192-.81.544-1.653 1.056-2.528s1.109-1.557 1.792-2.048c.192 0 .416.021.672.064.256.021.512.075.768.16.277.085.533.192.768.32.256.107.469.256.64.448-.192.213-.662 1.259-1.408 3.136-.747 1.877-1.12 2.955-1.12 3.232 0 .17.021.299.064.384.064.085.117.15.16.192.32-.128.725-.48 1.216-1.056.49-.576 1.173-1.461 2.048-2.656.213-.299.81-1.27 1.792-2.912Zm26.792-5.408c-.086 1.323-.32 2.464-.704 3.424a7.535 7.535 0 0 1-1.664 2.496c-.704.704-1.568 1.344-2.592 1.92-1.024.576-2.219 1.13-3.584 1.664 0 .128-.011.267-.032.416v.416c0 .277.021.565.064.864.042.299.117.576.224.832.106.256.256.47.448.64.192.15.437.224.736.224a4.01 4.01 0 0 0 1.696-.384 8.954 8.954 0 0 0 1.568-.928c.512-.384.981-.79 1.408-1.216.448-.448.842-.853 1.184-1.216.213.192.394.373.544.544-.96 1.28-2.016 2.347-3.168 3.2-1.131.832-2.208 1.365-3.232 1.6-1.472-.17-2.624-.704-3.456-1.6-.811-.917-1.216-2.016-1.216-3.296 0-.875.117-1.76.352-2.656.256-.917.597-1.792 1.024-2.624.448-.853.96-1.653 1.536-2.4a13.666 13.666 0 0 1 1.888-1.952 9.618 9.618 0 0 1 2.08-1.312c.725-.32 1.44-.48 2.144-.48.981.128 1.898.736 2.752 1.824Zm-2.208 1.056c-.576.085-1.174.32-1.792.704-.619.384-1.206.896-1.76 1.536a12.689 12.689 0 0 0-1.472 2.24c-.448.853-.8 1.77-1.056 2.752 1.706-.853 3.125-1.899 4.256-3.136 1.13-1.259 1.738-2.624 1.824-4.096Zm13.929 17.056c.214-.299.384-.65.512-1.056.128-.384.203-.79.224-1.216a3.86 3.86 0 0 0-.064-1.216 3.81 3.81 0 0 0-.352-1.12c-.213.192-.416.47-.608.832a6.52 6.52 0 0 0-.416 1.184c-.106.427-.17.832-.192 1.216 0 .384.054.683.16.896.15.277.395.437.736.48Zm-.8-5.12a22.66 22.66 0 0 1-.736-.448 2.59 2.59 0 0 1-.832-1.28c-.128-.512-.192-.95-.192-1.312 0-.448.054-.832.16-1.152-.085 0-.277.17-.576.512a26.76 26.76 0 0 0-.992 1.216 72.54 72.54 0 0 1-1.792 2.368 4.597 4.597 0 0 1-.8.704c-.234.17-.426.267-.576.288a4.302 4.302 0 0 1-1.088-.224 4.277 4.277 0 0 1-1.056-.48 4.208 4.208 0 0 1-.864-.768 2.536 2.536 0 0 1-.48-1.024c0-.597.011-1.088.032-1.472.043-.384.118-.8.224-1.248.192-.81.47-1.728.832-2.752a31.447 31.447 0 0 1 1.312-3.008 20.811 20.811 0 0 1 1.632-2.784c.619-.875 1.27-1.557 1.952-2.048.192 0 .416.021.672.064.256.021.512.075.768.16.278.085.534.192.768.32.256.107.47.256.64.448-.192.213-.682.928-1.472 2.144-.768 1.216-1.632 2.965-2.592 5.248a11.58 11.58 0 0 0-.384 1.024 60.65 60.65 0 0 0-.448 1.408c-.149.49-.277.97-.384 1.44-.085.47-.128.843-.128 1.12 0 .17.022.299.064.384.064.085.118.15.16.192.32-.128.726-.48 1.216-1.056.491-.576 1.174-1.461 2.048-2.656l.736-1.024c.299-.384.598-.79.896-1.216.299-.448.576-.907.832-1.376.278-.47.502-.939.672-1.408.086-.256.192-.555.32-.896.15-.363.32-.736.512-1.12.214-.384.448-.768.704-1.152a6.9 6.9 0 0 1 .96-1.12c.278 0 .576.032.896.096.32.064.619.15.896.256.299.085.555.192.768.32.214.107.374.224.48.352-.384.939-.81 1.867-1.28 2.784a64.012 64.012 0 0 0-1.312 2.72c-.405.875-.746 1.75-1.024 2.624a8.456 8.456 0 0 0-.416 2.56c0 .448.032.843.096 1.184.086.32.171.587.256.8.043.128.086.245.128.352h.032c.043.107.107.235.192.384.576 1.045.768 2.048.576 3.008-.192.981-.757 1.813-1.696 2.496a1.69 1.69 0 0 1-.608.16 2.507 2.507 0 0 1-1.344-.256 1.607 1.607 0 0 1-.544-.352 4.468 4.468 0 0 1-.48-1.568 4.57 4.57 0 0 1 .16-1.6c.15-.533.395-1.035.736-1.504.214-.299.47-.576.768-.832ZM259.119 15.8c-.064-.17-.086-.277-.064-.32-.107-.107-.299-.203-.576-.288a3.955 3.955 0 0 0-.928-.224 5.235 5.235 0 0 0-.96-.096c-.299-.021-.512-.021-.64 0-.214.043-.416.16-.608.352-.192.17-.363.373-.512.608-.15.235-.278.459-.384.672-.086.213-.128.363-.128.448a3.895 3.895 0 0 1-1.504-.48c-.448-.256-.8-.736-1.056-1.44.341-.96.693-1.685 1.056-2.176.362-.49.864-.853 1.504-1.088 1.088.192 2.122.48 3.104.864 1.002.363 1.898.8 2.688 1.312.277-.235.544-.459.8-.672.256-.235.576-.437.96-.608.554.15 1.024.597 1.408 1.344-.128.384-.31.715-.544.992a9.395 9.395 0 0 1-.8.768c-.278.235-.566.47-.864.704a5.097 5.097 0 0 0-.352.32 5.89 5.89 0 0 1-.16.576 8.119 8.119 0 0 1-.736 1.664c-.32.555-.715 1.099-1.184 1.632-.448.512-.95.97-1.504 1.376l-.672.48c.149.128.298.245.448.352a6.53 6.53 0 0 1 1.312 1.92c.341.747.565 1.568.672 2.464.042.81-.128 1.707-.512 2.688a11.785 11.785 0 0 1-1.504 2.848 22.403 22.403 0 0 1-2.112 2.592c-.982 1.024-1.995 1.803-3.04 2.336-1.046.555-2.091.832-3.136.832a6.437 6.437 0 0 1-1.568-.192 6.263 6.263 0 0 1-1.472-.48 4.773 4.773 0 0 1-1.216-.704c-.363-.256-.619-.533-.768-.832 0-.256.149-.48.448-.672.256.235.469.416.64.544.17.128.341.235.512.32.149.085.32.139.512.16.17.021.373.032.608.032 1.216 0 2.4-.363 3.552-1.088 1.173-.704 2.282-1.717 3.328-3.04a21.156 21.156 0 0 0 1.92-2.976h-.064c.277-.725.49-1.472.64-2.24.32-1.877.138-3.072-.544-3.584l-.224-.224c-.086 0-.171.01-.256.032l.032-.128a1.203 1.203 0 0 0-.16.064c-.491.15-.864.224-1.12.224-.406 0-.758-.192-1.056-.576-.278-.405-.416-1.013-.416-1.824.81 0 1.589-.17 2.336-.512.768-.363 1.525-.79 2.272-1.28a6.216 6.216 0 0 0 1.92-1.952c.32-.512.544-1.12.672-1.824Zm15.494-1.728c.213 0 .458.043.736.128.298.064.565.16.8.288.234.107.426.224.576.352.17.128.256.245.256.352a43.088 43.088 0 0 0-1.184 2.72c-.363.896-.672 1.76-.928 2.592-.256.832-.459 1.61-.608 2.336-.128.725-.192 1.355-.192 1.888 0 .597.064 1.099.192 1.504.128.384.341.661.64.832-.256.17-.587.31-.992.416a4.33 4.33 0 0 1-1.088.16c-1.152 0-1.728-.79-1.728-2.368 0-1.216.405-2.88 1.216-4.992-.427.981-.918 1.91-1.472 2.784-.555.853-1.12 1.61-1.696 2.272a10.322 10.322 0 0 1-1.76 1.632c-.576.405-1.11.65-1.6.736-.79-.043-1.43-.416-1.92-1.12-.491-.725-.736-1.643-.736-2.752 0-1.195.256-2.453.768-3.776a17.3 17.3 0 0 1 1.952-3.68c.81-1.13 1.685-2.07 2.624-2.816.938-.768 1.845-1.173 2.72-1.216.213.064.448.192.704.384.277.192.533.416.768.672.256.256.469.523.64.8.17.256.266.48.288.672-.854.128-1.739.544-2.656 1.248a13.403 13.403 0 0 0-2.464 2.56 14.911 14.911 0 0 0-1.792 3.168c-.47 1.13-.704 2.187-.704 3.168 0 .405.149.661.448.768.618-.128 1.333-.65 2.144-1.568.81-.939 1.792-2.379 2.944-4.32.213-.384.448-.81.704-1.28.277-.47.554-.96.832-1.472a53.68 53.68 0 0 0 .8-1.536c.277-.533.533-1.045.768-1.536Zm4.183 7.296c0-1.216.245-2.39.736-3.52a11.002 11.002 0 0 1 1.984-3.04 10.076 10.076 0 0 1 2.816-2.144c1.067-.555 2.165-.832 3.296-.832 1.109 0 1.963.277 2.56.832.597.555.896 1.344.896 2.368 0 .49-.075.97-.224 1.44a4.487 4.487 0 0 1-.544 1.216 3.15 3.15 0 0 1-.768.896c-.299.213-.597.32-.896.32-.256 0-.523-.075-.8-.224a2.29 2.29 0 0 1-.64-.64c1.429-1.301 2.144-2.485 2.144-3.552 0-.619-.245-.928-.736-.928-.427 0-.96.203-1.6.608-.64.405-1.259.939-1.856 1.6a11.196 11.196 0 0 0-2.112 3.424 10.922 10.922 0 0 0-.704 3.904c0 1.728.384 2.763 1.152 3.104.32-.043.693-.139 1.12-.288a13.7 13.7 0 0 0 1.376-.576c.491-.256.992-.544 1.504-.864.533-.32 1.045-.661 1.536-1.024a.8.8 0 0 1 .224.288.796.796 0 0 1 .096.352c-.363.448-.779.885-1.248 1.312a15.5 15.5 0 0 1-1.472 1.184c-.512.341-1.013.63-1.504.864-.469.256-.885.416-1.248.48a4.49 4.49 0 0 1-1.984-.672 5.789 5.789 0 0 1-1.632-1.44 7.797 7.797 0 0 1-1.088-2.048 7.54 7.54 0 0 1-.384-2.4Zm21.95 4.928a2.576 2.576 0 0 1-.832-1.28c-.128-.512-.192-.95-.192-1.312 0-.448.053-.832.16-1.152-.086 0-.278.17-.576.512-.299.341-.63.747-.992 1.216a82.307 82.307 0 0 1-1.792 2.368 4.633 4.633 0 0 1-.8.704c-.235.17-.427.267-.576.288a4.293 4.293 0 0 1-1.088-.224 4.244 4.244 0 0 1-1.056-.48 4.208 4.208 0 0 1-.864-.768 2.51 2.51 0 0 1-.48-1.024c0-.597.01-1.088.032-1.472.042-.384.117-.8.224-1.248.192-.81.544-1.653 1.056-2.528s1.109-1.557 1.792-2.048c.192 0 .416.021.672.064.256.021.512.075.768.16.277.085.533.192.768.32.256.107.469.256.64.448-.192.213-.662 1.259-1.408 3.136-.747 1.877-1.12 2.955-1.12 3.232 0 .17.021.299.064.384.064.085.117.15.16.192.32-.128.725-.48 1.216-1.056.49-.576 1.173-1.461 2.048-2.656.213-.299.458-.64.736-1.024.298-.384.597-.79.896-1.216.298-.448.576-.907.832-1.376.277-.47.501-.939.672-1.408.085-.256.192-.555.32-.896.149-.363.32-.736.512-1.12.213-.384.448-.768.704-1.152.277-.405.597-.779.96-1.12.277 0 .576.032.895.096.321.064.619.15.897.256.298.085.554.192.768.32.213.107.373.224.48.352a36.336 36.336 0 0 1-1.28 2.784c-.47.917-.907 1.824-1.312 2.72-.406.875-.747 1.75-1.024 2.624a8.425 8.425 0 0 0-.416 2.56c0 .448.032.843.096 1.184.085.32.17.597.256.832.085.213.16.395.224.544.085.15.128.277.128.384 0 .021-.022.053-.064.096-.022.021-.043.032-.064.032-.15 0-.342-.032-.576-.096a6.174 6.174 0 0 1-.8-.288 9.671 9.671 0 0 1-.864-.384 9.784 9.784 0 0 1-.8-.48Zm19.14-4.256a74.457 74.457 0 0 1-1.472 4.256 34.066 34.066 0 0 1-1.568 3.52 23.423 23.423 0 0 1-1.792 2.976 22.403 22.403 0 0 1-2.112 2.592c-.981 1.024-1.995 1.803-3.04 2.336-1.045.555-2.091.832-3.136.832a6.835 6.835 0 0 1-1.6-.192 6.35 6.35 0 0 1-1.44-.48 4.79 4.79 0 0 1-1.216-.704c-.363-.256-.619-.533-.768-.832 0-.256.149-.48.448-.672.256.235.469.416.64.544.171.128.341.235.512.32.149.085.32.139.512.16.171.021.373.032.608.032 1.216 0 2.4-.363 3.552-1.088 1.173-.704 2.272-1.717 3.296-3.04 1.045-1.301 1.995-2.89 2.848-4.768.853-1.856 1.579-3.936 2.176-6.24-.277.427-.619.95-1.024 1.568a25.135 25.135 0 0 1-1.344 1.856 16.169 16.169 0 0 1-1.536 1.632c-.512.49-1.013.821-1.504.992a4.302 4.302 0 0 1-1.088-.224 4.244 4.244 0 0 1-1.056-.48 4.208 4.208 0 0 1-.864-.768 2.322 2.322 0 0 1-.512-1.024c0-.619.021-1.11.064-1.472.043-.384.117-.8.224-1.248.192-.81.469-1.728.832-2.752a31.197 31.197 0 0 1 1.312-3.008 23.457 23.457 0 0 1 1.664-2.784c.619-.875 1.259-1.557 1.92-2.048.171 0 .384.021.64.064.256.021.523.075.8.16s.544.192.8.32c.256.107.48.256.672.448-.235.213-.747.928-1.536 2.144-.789 1.216-1.664 2.965-2.624 5.248-.107.235-.235.576-.384 1.024-.149.448-.299.917-.448 1.408-.128.49-.245.97-.352 1.44-.107.47-.16.843-.16 1.12 0 .17.021.299.064.384.064.085.117.15.16.192.384-.064.896-.373 1.536-.928.64-.576 1.365-1.461 2.176-2.656a39.02 39.02 0 0 0 1.408-2.272c.427-.768.843-1.536 1.248-2.304.427-.768.864-1.557 1.312-2.368.448-.81.928-1.643 1.44-2.496.277 0 .576.032.896.096.32.064.629.15.928.256.299.085.555.192.768.32.235.107.405.224.512.352a133.136 133.136 0 0 0-1.856 4.128 45.475 45.475 0 0 0-1.536 4.128Zm13.608-.992a5.934 5.934 0 0 1-.32.864 11.107 11.107 0 0 1-2.016 3.072 9.745 9.745 0 0 1-2.816 2.112 6.872 6.872 0 0 1-3.264.832c-.448 0-.864-.043-1.248-.128a.288.288 0 0 1-.128-.032l-.32-.128a.703.703 0 0 0-.224-.096 7.303 7.303 0 0 1-1.056-.64 4.982 4.982 0 0 1-1.12-1.088 1.08 1.08 0 0 1 .288-.608c.192-.213.363-.341.512-.384.534.576 1.088.981 1.664 1.216.043.021.256.075.64.16.427 0 .96-.203 1.6-.608.64-.405 1.259-.939 1.856-1.6a10.769 10.769 0 0 0 2.08-3.392c.491-1.259.736-2.57.736-3.936 0-1.728-.384-2.763-1.152-3.104l-.256-.16a.986.986 0 0 0-.384.16c-.938.512-1.632 1.707-2.08 3.584a2.175 2.175 0 0 1-.896-.256 1.85 1.85 0 0 1-.576-.576c-.149-.256-.202-.565-.16-.928.064-.384.203-.757.416-1.12.214-.384.48-.747.8-1.088.342-.341.736-.63 1.184-.864.896-.49 1.728-.608 2.496-.352.192.064.374.15.544.256l.512.256a5.828 5.828 0 0 1 1.6 1.472c.47.597.843 1.28 1.12 2.048.171.533.288 1.077.352 1.632 1.131-1.707 2.155-2.667 3.072-2.88.448-.107.971-.075 1.568.096.619.17 1.195.459 1.728.864-.405.725-.8 1.59-1.184 2.592a38.979 38.979 0 0 0-.96 2.72c-.234.81-.458 1.696-.672 2.656.022.064.075.085.16.064.043-.021.15-.117.32-.288.192-.192.374-.384.544-.576a17.68 17.68 0 0 0 1.504-2.24c.043-.064.086-.139.128-.224.235-.81.555-1.6.96-2.368.427-.832.928-1.621 1.504-2.368a13.776 13.776 0 0 1 1.888-1.952 9.642 9.642 0 0 1 2.08-1.312c.726-.32 1.44-.48 2.144-.48.47.064 1.014.363 1.632.896.64.533.96 1.312.96 2.336 0 .49-.074.97-.224 1.44a4.487 4.487 0 0 1-.544 1.216 3.15 3.15 0 0 1-.768.896c-.298.213-.597.32-.896.32a1.69 1.69 0 0 1-.8-.224 2.29 2.29 0 0 1-.64-.64c1.28-1.941 1.803-3.04 1.568-3.296-.234-.277-.746-.064-1.536.64-.618.384-1.205.896-1.76 1.536a12.745 12.745 0 0 0-1.472 2.24c-.448.853-.885 2.176-1.312 3.968 0 .128-.01.267-.032.416v.416c0 .277.022.565.064.864.043.299.118.576.224.832.107.256.256.47.448.64.192.15.438.224.736.224.576 0 1.142-.128 1.696-.384a8.881 8.881 0 0 0 1.568-.928c.512-.384.982-.79 1.408-1.216a55.77 55.77 0 0 0 1.184-1.216c.214.192.395.373.544.544-.96 1.28-2.016 2.347-3.168 3.2-1.13.832-2.208 1.365-3.232 1.6-1.472-.17-2.613-.715-3.424-1.632a4.62 4.62 0 0 1-1.216-2.72c-1.152 1.728-2.186 2.699-3.104 2.912-.448.128-.981.107-1.6-.064a5.664 5.664 0 0 1-1.696-.896c.406-.725.8-1.579 1.184-2.56a34.32 34.32 0 0 0 .928-2.72c.256-.832.491-1.728.704-2.688-.021-.064-.074-.085-.16-.064-.042.021-.16.128-.352.32-.17.192-.341.373-.512.544a17.786 17.786 0 0 0-1.504 2.24 7.633 7.633 0 0 1-.064.128Zm28.127 5.248a2.576 2.576 0 0 1-.832-1.28c-.128-.512-.192-.95-.192-1.312 0-.448.053-.832.16-1.152-.086 0-.278.17-.576.512-.299.341-.63.747-.992 1.216a82.307 82.307 0 0 1-1.792 2.368 4.633 4.633 0 0 1-.8.704c-.235.17-.427.267-.576.288a4.293 4.293 0 0 1-1.088-.224 4.244 4.244 0 0 1-1.056-.48 4.208 4.208 0 0 1-.864-.768 2.51 2.51 0 0 1-.48-1.024c0-.597.01-1.088.032-1.472.042-.384.117-.8.224-1.248.192-.81.469-1.728.832-2.752a31.197 31.197 0 0 1 1.312-3.008 20.6 20.6 0 0 1 1.632-2.784c.618-.875 1.269-1.557 1.952-2.048.192 0 .416.021.672.064.256.021.512.075.768.16.277.085.533.192.768.32.256.107.469.256.64.448-.192.213-.683.928-1.472 2.144-.768 1.216-1.632 2.965-2.592 5.248-.107.235-.235.576-.384 1.024-.15.448-.299.917-.448 1.408-.15.49-.278.97-.384 1.44a6.55 6.55 0 0 0-.128 1.12c0 .17.021.299.064.384.064.085.117.15.16.192.32-.128.725-.48 1.216-1.056.49-.576 1.173-1.461 2.048-2.656.213-.299.458-.64.736-1.024.298-.384.597-.79.896-1.216.298-.448.576-.907.832-1.376.277-.47.501-.939.672-1.408.085-.256.192-.555.32-.896.149-.363.32-.736.512-1.12.213-.384.448-.768.704-1.152.277-.405.597-.779.96-1.12.277 0 .576.032.895.096.321.064.619.15.897.256.298.085.554.192.768.32.213.107.373.224.48.352a36.336 36.336 0 0 1-1.28 2.784c-.47.917-.907 1.824-1.312 2.72-.406.875-.747 1.75-1.024 2.624a8.425 8.425 0 0 0-.416 2.56c0 .448.032.843.096 1.184.085.32.17.597.256.832.085.213.16.395.224.544.085.15.128.277.128.384 0 .021-.022.053-.064.096-.022.021-.043.032-.064.032-.15 0-.342-.032-.576-.096a6.174 6.174 0 0 1-.8-.288 9.671 9.671 0 0 1-.864-.384 9.784 9.784 0 0 1-.8-.48Zm17.668-18.912c1.387-1.472 2.08-2.773 2.08-3.904 0-.085-.021-.15-.064-.192-1.685 1.579-3.189 3.456-4.512 5.632.597-.256 1.077-.501 1.44-.736.384-.256.736-.523 1.056-.8Zm2.432.928c-.661.64-1.365 1.13-2.112 1.472-.725.341-1.995.619-3.808.832-1.451 2.752-2.656 5.92-3.616 9.504a27.692 27.692 0 0 1 2.016-3.2 28.976 28.976 0 0 1 2.208-2.752c.747-.79 1.451-1.419 2.112-1.888.683-.47 1.248-.704 1.696-.704.341.085.672.235.992.448.32.213.608.48.864.8.256.299.469.63.64.992.171.341.277.704.32 1.088-.021.896-.181 1.856-.48 2.88a16.411 16.411 0 0 1-1.152 2.976 20.496 20.496 0 0 1-1.632 2.816 15.428 15.428 0 0 1-1.92 2.368c-.661.661-1.333 1.195-2.016 1.6-.661.405-1.291.608-1.888.608-.256 0-.523-.032-.8-.096a2.942 2.942 0 0 1-.736-.224 2.586 2.586 0 0 1-.544-.288c-.128-.107-.192-.213-.192-.32.981-.661 1.941-1.504 2.88-2.528a26.294 26.294 0 0 0 2.56-3.36 24.338 24.338 0 0 0 1.952-3.776c.533-1.301.896-2.55 1.088-3.744 0-.256-.139-.427-.416-.512-.299 0-.715.267-1.248.8-.512.512-1.088 1.173-1.728 1.984a48.29 48.29 0 0 0-1.92 2.72 43.85 43.85 0 0 0-1.76 3.008c-.533.981-.992 1.91-1.376 2.784-.363.853-.565 1.547-.608 2.08-.213 0-.395-.213-.544-.64a.975.975 0 0 0-.224-.32 2.913 2.913 0 0 0-.512-.448 3.885 3.885 0 0 1-.32-.288 1.791 1.791 0 0 1-.224-.32c-.085-.17-.128-.448-.128-.832 0-1.259.16-2.677.48-4.256.32-1.579.736-3.19 1.248-4.832a48.95 48.95 0 0 1 1.856-4.832 49.314 49.314 0 0 1 2.176-4.384c.768-1.323 1.536-2.443 2.304-3.36.768-.917 1.493-1.525 2.176-1.824.213.064.469.17.768.32.299.15.597.32.896.512.299.192.576.384.832.576.277.192.48.363.608.512.576.597.864 1.344.864 2.24 0 .683-.139 1.376-.416 2.08a4.543 4.543 0 0 1-1.216 1.728Zm13.142 5.76c.213 0 .458.043.736.128.298.064.565.16.8.288.234.107.426.224.576.352.17.128.256.245.256.352a43.088 43.088 0 0 0-1.184 2.72c-.363.896-.672 1.76-.928 2.592-.256.832-.459 1.61-.608 2.336-.128.725-.192 1.355-.192 1.888 0 .597.064 1.099.192 1.504.128.384.341.661.64.832-.256.17-.587.31-.992.416a4.33 4.33 0 0 1-1.088.16c-1.152 0-1.728-.79-1.728-2.368 0-1.216.405-2.88 1.216-4.992-.427.981-.918 1.91-1.472 2.784-.555.853-1.12 1.61-1.696 2.272a10.322 10.322 0 0 1-1.76 1.632c-.576.405-1.11.65-1.6.736-.79-.043-1.43-.416-1.92-1.12-.491-.725-.736-1.643-.736-2.752 0-1.195.256-2.453.768-3.776a17.3 17.3 0 0 1 1.952-3.68c.81-1.13 1.685-2.07 2.624-2.816.938-.768 1.845-1.173 2.72-1.216.213.064.448.192.704.384.277.192.533.416.768.672.256.256.469.523.64.8.17.256.266.48.288.672-.854.128-1.739.544-2.656 1.248a13.403 13.403 0 0 0-2.464 2.56 14.911 14.911 0 0 0-1.792 3.168c-.47 1.13-.704 2.187-.704 3.168 0 .405.149.661.448.768.618-.128 1.333-.65 2.144-1.568.81-.939 1.792-2.379 2.944-4.32.213-.384.448-.81.704-1.28.277-.47.554-.96.832-1.472a53.68 53.68 0 0 0 .8-1.536c.277-.533.533-1.045.768-1.536Zm15.447-.32c-.085 1.323-.32 2.464-.704 3.424a7.535 7.535 0 0 1-1.664 2.496c-.704.704-1.568 1.344-2.592 1.92-1.024.576-2.219 1.13-3.584 1.664 0 .128-.011.267-.032.416v.416c0 .277.021.565.064.864.043.299.117.576.224.832s.256.47.448.64c.192.15.437.224.736.224a4.01 4.01 0 0 0 1.696-.384 8.917 8.917 0 0 0 1.568-.928c.512-.384.981-.79 1.408-1.216a55.77 55.77 0 0 0 1.184-1.216c.213.192.395.373.544.544-.96 1.28-2.016 2.347-3.168 3.2-1.131.832-2.208 1.365-3.232 1.6-1.472-.17-2.624-.704-3.456-1.6-.811-.917-1.216-2.016-1.216-3.296 0-.875.117-1.76.352-2.656.256-.917.597-1.792 1.024-2.624.448-.853.96-1.653 1.536-2.4a13.72 13.72 0 0 1 1.888-1.952 9.642 9.642 0 0 1 2.08-1.312c.725-.32 1.44-.48 2.144-.48.981.128 1.899.736 2.752 1.824Zm-2.208 1.056c-.576.085-1.173.32-1.792.704-.619.384-1.205.896-1.76 1.536a12.745 12.745 0 0 0-1.472 2.24c-.448.853-.8 1.77-1.056 2.752 1.707-.853 3.125-1.899 4.256-3.136 1.131-1.259 1.739-2.624 1.824-4.096Zm22.186 2.368c-.342.021-.758.245-1.248.672-.491.405-1.024.939-1.6 1.6a55.624 55.624 0 0 0-1.76 2.144c-.598.79-1.184 1.579-1.76 2.368-.555.768-1.078 1.493-1.568 2.176a28.15 28.15 0 0 1-1.248 1.632 3.426 3.426 0 0 1-1.216-.832 3.408 3.408 0 0 1-.736-1.408c.106-.661.256-1.344.448-2.048.192-.725.437-1.472.736-2.24.32-.768.704-1.568 1.152-2.4a28.593 28.593 0 0 1 1.696-2.688c-.32.021-.758.256-1.312.704-.555.427-1.152.992-1.792 1.696a34.167 34.167 0 0 0-1.985 2.336 61.24 61.24 0 0 0-1.919 2.528 73.115 73.115 0 0 0-1.984 2.912c-.512.832-.886 1.323-1.12 1.472-.555-.405-.939-.843-1.152-1.312a6.682 6.682 0 0 1-.48-1.568c.021-.512.096-1.152.224-1.92.149-.768.352-1.557.608-2.368a31.547 31.547 0 0 1 1.888-4.64 116.39 116.39 0 0 1 2.272-4.224c.597.128 1.13.33 1.6.608.49.277 1.002.683 1.536 1.216-.214.661-.544 1.365-.992 2.112-.448.725-.918 1.493-1.408 2.304-.491.81-.939 1.643-1.344 2.496a9.068 9.068 0 0 0-.8 2.592c.597-.853 1.301-1.835 2.111-2.944a55.952 55.952 0 0 1 2.529-3.136c.874-.981 1.738-1.813 2.592-2.496.853-.683 1.621-1.024 2.304-1.024.256 0 .533.043.832.128.298.085.576.192.832.32s.469.256.64.384c.17.107.266.192.288.256-.107.427-.363 1.013-.768 1.76-.384.725-.8 1.493-1.249 2.304-.447.81-.863 1.6-1.247 2.368-.384.747-.608 1.344-.672 1.792 1.045-1.43 2.026-2.72 2.944-3.872.917-1.173 1.781-2.176 2.592-3.008.81-.832 1.557-1.472 2.24-1.92.704-.448 1.365-.672 1.984-.672.426 0 .821.117 1.184.352.384.213.65.533.8.96-.192.64-.512 1.408-.96 2.304-.427.896-.864 1.845-1.312 2.848a46.66 46.66 0 0 0-1.216 2.912c-.342.96-.512 1.824-.512 2.592 0 .448.064.747.192.896.128.128.309.192.544.192.256 0 .49-.043.704-.128.234-.107.405-.16.512-.16a.477.477 0 0 1 .224.32c.021.128.032.245.032.352a6.76 6.76 0 0 1-1.312.832c-.448.235-.95.352-1.504.352-.512 0-.939-.085-1.28-.256a2.301 2.301 0 0 1-.8-.704 2.76 2.76 0 0 1-.448-1.024 5.709 5.709 0 0 1-.128-1.248c0-.725.096-1.44.288-2.144.192-.725.416-1.408.672-2.048.277-.661.565-1.27.864-1.824.298-.576.554-1.088.768-1.536Zm18.269 3.52c-.192.235-.362.48-.512.736a14.06 14.06 0 0 0-1.312 2.848c-.341 1.067-.672 2.336-.992 3.808-.192-.021-.426-.096-.704-.224a5.81 5.81 0 0 1-.8-.416 6.21 6.21 0 0 1-.704-.544c-.213-.192-.352-.373-.416-.544.107-.619.288-1.43.544-2.432.278-1.024.598-2.101.96-3.232a111.03 111.03 0 0 1 1.152-3.456 58.17 58.17 0 0 1 1.184-3.104c.278-.661.523-1.173.736-1.536.214-.384.448-.704.704-.96.299.043.608.117.928.224.32.107.63.235.928.384.299.15.566.31.8.48.235.15.416.299.544.448a12.297 12.297 0 0 0-1.536 2.336c-.426.875-.864 1.995-1.312 3.36a45.112 45.112 0 0 0 3.04-2.944 23.022 23.022 0 0 0 2.496-3.136c.128-.107.352-.16.672-.16.299 0 .587.053.864.16.278.085.47.213.576.384-.384 1.024-.576 2.037-.576 3.04 0 .939.139 1.643.416 2.112-.021.128-.17.373-.448.736a7.84 7.84 0 0 1-.864 1.024 5.231 5.231 0 0 1-1.536-1.216 5.436 5.436 0 0 1-.992-1.728 21.173 21.173 0 0 0-2.464 1.952h.064a3.66 3.66 0 0 1 1.248.288c.406.15.758.363 1.056.64.32.256.576.565.768.928.192.363.288.779.288 1.248 0 .192-.01.384-.032.576a271.037 271.037 0 0 0-.032 3.2c-.042.512.032.864.224 1.056.214.192.427.288.64.288.192 0 .395-.053.608-.16.214-.107.384-.16.512-.16.086.043.15.128.192.256.043.15.064.277.064.384-.149.15-.32.299-.512.448-.192.15-.405.288-.64.416a4.423 4.423 0 0 1-.64.32 1.342 1.342 0 0 1-.544.128c-.512 0-.896-.075-1.152-.224-.256-.128-.469-.373-.64-.736-.17-.341-.288-.81-.352-1.408-.042-.619-.021-1.483.064-2.592.086-1.11.128-1.835.128-2.176 0-.555-.117-.939-.352-1.152-.234-.235-.533-.352-.896-.352-.277 0-.576.053-.896.16a4.17 4.17 0 0 0-.544.224Zm13.542 7.424c-1.216-.128-2.187-.661-2.912-1.6-.726-.939-1.088-2.133-1.088-3.584 0-.853.128-1.739.384-2.656s.618-1.803 1.088-2.656a14.667 14.667 0 0 1 1.664-2.464c.64-.768 1.333-1.43 2.08-1.984 1.173-.875 2.272-1.312 3.296-1.312.682.363 1.354 1.12 2.016 2.272h.288c.085-.021.181-.032.288-.032 1.13 0 1.696 1.003 1.696 3.008 0 1.344-.224 2.624-.672 3.84a11.172 11.172 0 0 1-1.824 3.264 10.771 10.771 0 0 1-2.784 2.496 11.078 11.078 0 0 1-3.52 1.408Zm1.632-10.08c-.363.49-.704 1.024-1.024 1.6a14.56 14.56 0 0 0-.832 1.76 11.099 11.099 0 0 0-.544 1.696 6.234 6.234 0 0 0-.192 1.44c0 .512.085 1.003.256 1.472.17.47.362.736.576.8a6.972 6.972 0 0 0 2.624-1.184 8.574 8.574 0 0 0 2.08-2.208 10.302 10.302 0 0 0 1.376-2.976c.341-1.11.512-2.293.512-3.552 0-.555-.032-.992-.096-1.312a2.426 2.426 0 0 0-.32-.832 7.043 7.043 0 0 0-2.528 1.344 13.443 13.443 0 0 0-1.888 1.952Zm6.381 19.552c-.299-.085-.47-.405-.512-.96a5.346 5.346 0 0 1-.192-.992 23.262 23.262 0 0 1-.032-1.312c0-.448.074-1.067.224-1.856.149-.768.352-1.643.608-2.624.277-.981.608-2.037.992-3.168a62.7 62.7 0 0 1 1.28-3.488 538.99 538.99 0 0 1 1.504-3.808 88.87 88.87 0 0 0 1.056-2.816c.298-.79.533-1.44.704-1.952.192-.512.341-.95.448-1.312.085-.256.213-.565.384-.928.17-.363.362-.725.576-1.088.234-.384.469-.736.704-1.056.234-.341.448-.597.64-.768.746.107 1.45.299 2.112.576.661.277 1.066.544 1.216.8-.299.277-.64.715-1.024 1.312a19.718 19.718 0 0 0-1.12 1.92 23.601 23.601 0 0 0-.992 2.112 16.104 16.104 0 0 0-.672 1.92c.213-.363.49-.757.832-1.184.341-.427.864-1.013 1.568-1.76.789-.81 1.525-1.43 2.208-1.856.704-.448 1.312-.672 1.824-.672.81 0 1.472.224 1.984.672.533.448.8 1.024.8 1.728 0 1.536-.256 3.061-.768 4.576a13.653 13.653 0 0 1-2.208 4.064 9.48 9.48 0 0 1-1.28 1.344c-.491.427-1.003.81-1.536 1.152a9.662 9.662 0 0 1-1.568.768c-.512.192-.971.288-1.376.288-.384 0-.726-.075-1.024-.224-.278-.17-.47-.373-.576-.608.832-.49 1.642-1.173 2.432-2.048a18.198 18.198 0 0 0 2.176-3.008 22.937 22.937 0 0 0 1.76-3.712 22.78 22.78 0 0 0 1.152-4.032c-.811.427-1.547.896-2.208 1.408-.64.49-1.28 1.141-1.92 1.952-.768.939-1.376 1.696-1.824 2.272a70.624 70.624 0 0 0-1.12 1.472c-.278.405-.512.79-.704 1.152-.171.341-.363.768-.576 1.28a44.21 44.21 0 0 0-1.056 2.72c-.384 1.11-.79 2.357-1.216 3.744a258.355 258.355 0 0 0-1.248 4.416c-.406 1.579-.8 3.147-1.184 4.704-.235-.043-.438-.213-.608-.512-.171-.192-.299-.33-.384-.416a.587.587 0 0 0-.256-.192Zm26.593-18.432c.982-1.664 1.536-2.667 1.664-3.008.15-.363.32-.736.512-1.12.214-.384.448-.768.704-1.152a6.9 6.9 0 0 1 .96-1.12c.278 0 .576.032.896.096.32.064.619.15.896.256.299.085.555.192.768.32.214.107.374.224.48.352-.384.939-.81 1.867-1.28 2.784a78.61 78.61 0 0 0-1.312 2.688 1.235 1.235 0 0 1-.192.32l-.256.64a11.58 11.58 0 0 0-.384 1.024 60.65 60.65 0 0 0-.448 1.408c-.149.49-.277.97-.384 1.44-.085.47-.128.843-.128 1.12 0 .17.022.299.064.384.064.085.118.15.16.192.32-.128.726-.48 1.216-1.056.491-.576 1.174-1.461 2.048-2.656l.736-1.024c.299-.384.598-.79.896-1.216.299-.448.576-.907.832-1.376.278-.47.502-.939.672-1.408.086-.256.192-.555.32-.896.15-.363.32-.736.512-1.12.214-.384.448-.768.704-1.152a6.9 6.9 0 0 1 .96-1.12c.278 0 .576.032.896.096.32.064.619.15.896.256.299.085.555.192.768.32.214.107.374.224.48.352-.384.939-.81 1.867-1.28 2.784a64.012 64.012 0 0 0-1.312 2.72c-.405.875-.746 1.75-1.024 2.624a8.456 8.456 0 0 0-.416 2.56c0 .448.032.843.096 1.184.086.32.171.597.256.832.086.213.16.395.224.544.086.15.128.277.128.384 0 .021-.021.053-.064.096-.021.021-.042.032-.064.032-.149 0-.341-.032-.576-.096a6.282 6.282 0 0 1-.8-.288 9.932 9.932 0 0 1-.864-.384 9.957 9.957 0 0 1-.8-.48 2.59 2.59 0 0 1-.832-1.28c-.128-.512-.192-.95-.192-1.312 0-.448.054-.832.16-1.152-.085 0-.277.17-.576.512a26.76 26.76 0 0 0-.992 1.216 72.54 72.54 0 0 1-1.792 2.368 4.597 4.597 0 0 1-.8.704c-.234.17-.426.267-.576.288a4.302 4.302 0 0 1-1.088-.224 4.277 4.277 0 0 1-1.056-.48 4.208 4.208 0 0 1-.864-.768 2.536 2.536 0 0 1-.48-1.024c0-.597.022-1.088.064-1.472a8.68 8.68 0 0 1 .128-.96 6.62 6.62 0 0 0-.32.352 26.76 26.76 0 0 0-.992 1.216 72.54 72.54 0 0 1-1.792 2.368 4.597 4.597 0 0 1-.8.704c-.234.17-.426.267-.576.288a4.302 4.302 0 0 1-1.088-.224 4.277 4.277 0 0 1-1.056-.48 4.208 4.208 0 0 1-.864-.768 2.536 2.536 0 0 1-.48-1.024c0-.597.011-1.088.032-1.472.043-.384.118-.8.224-1.248.192-.81.544-1.653 1.056-2.528s1.11-1.557 1.792-2.048c.192 0 .416.021.672.064.256.021.512.075.768.16.278.085.534.192.768.32.256.107.47.256.64.448-.192.213-.661 1.259-1.408 3.136-.746 1.877-1.12 2.955-1.12 3.232 0 .17.022.299.064.384.064.085.118.15.16.192.32-.128.726-.48 1.216-1.056.491-.576 1.174-1.461 2.048-2.656.214-.299.811-1.27 1.792-2.912Zm26.377-5.088c.213 0 .458.043.736.128.298.064.565.16.8.288.234.107.426.224.576.352.17.128.256.245.256.352a43.088 43.088 0 0 0-1.184 2.72c-.363.896-.672 1.76-.928 2.592-.256.832-.459 1.61-.608 2.336-.128.725-.192 1.355-.192 1.888 0 .597.064 1.099.192 1.504.128.384.341.661.64.832-.256.17-.587.31-.992.416a4.33 4.33 0 0 1-1.088.16c-1.152 0-1.728-.79-1.728-2.368 0-1.216.405-2.88 1.216-4.992-.427.981-.918 1.91-1.472 2.784-.555.853-1.12 1.61-1.696 2.272a10.322 10.322 0 0 1-1.76 1.632c-.576.405-1.11.65-1.6.736-.79-.043-1.43-.416-1.92-1.12-.491-.725-.736-1.643-.736-2.752 0-1.195.256-2.453.768-3.776a17.3 17.3 0 0 1 1.952-3.68c.81-1.13 1.685-2.07 2.624-2.816.938-.768 1.845-1.173 2.72-1.216.213.064.448.192.704.384.277.192.533.416.768.672.256.256.469.523.64.8.17.256.266.48.288.672-.854.128-1.739.544-2.656 1.248a13.403 13.403 0 0 0-2.464 2.56 14.911 14.911 0 0 0-1.792 3.168c-.47 1.13-.704 2.187-.704 3.168 0 .405.149.661.448.768.618-.128 1.333-.65 2.144-1.568.81-.939 1.792-2.379 2.944-4.32.213-.384.448-.81.704-1.28.277-.47.554-.96.832-1.472a53.68 53.68 0 0 0 .8-1.536c.277-.533.533-1.045.768-1.536Zm1.431 18.336c-.128-.107-.246-.288-.352-.544a1.62 1.62 0 0 1-.16-.672c1.066-.917 1.824-1.792 2.272-2.624a5.446 5.446 0 0 0 .704-2.72c0-.64-.032-1.184-.096-1.632a10.757 10.757 0 0 0-.288-1.6 7.819 7.819 0 0 1 1.568.288 6.066 6.066 0 0 1 1.408.512 3.53 3.53 0 0 1 1.056.704c.277.256.448.512.512.768-1.003 3.541-3.211 6.048-6.624 7.52ZM5.776 46.696c-.192.235-.363.48-.512.736-.512.832-.95 1.781-1.312 2.848-.341 1.067-.672 2.336-.992 3.808-.192-.021-.427-.096-.704-.224a5.773 5.773 0 0 1-.8-.416 6.15 6.15 0 0 1-.704-.544c-.213-.192-.352-.373-.416-.544.107-.619.288-1.43.544-2.432.277-1.024.597-2.101.96-3.232.363-1.152.747-2.304 1.152-3.456.405-1.152.8-2.187 1.184-3.104.277-.661.523-1.173.736-1.536a4.3 4.3 0 0 1 .704-.96c.299.043.608.117.928.224.32.107.63.235.928.384.299.15.565.31.8.48.235.15.416.299.544.448a12.297 12.297 0 0 0-1.536 2.336c-.427.875-.864 1.995-1.312 3.36a45.272 45.272 0 0 0 3.04-2.944 23.022 23.022 0 0 0 2.496-3.136c.128-.107.352-.16.672-.16.299 0 .587.053.864.16.277.085.47.213.576.384-.384 1.024-.576 2.037-.576 3.04 0 .939.139 1.643.416 2.112-.021.128-.17.373-.448.736a7.84 7.84 0 0 1-.864 1.024 5.231 5.231 0 0 1-1.536-1.216 5.423 5.423 0 0 1-.992-1.728 21.145 21.145 0 0 0-2.464 1.952h.064c.427.021.843.117 1.248.288.405.15.757.363 1.056.64.32.256.576.565.768.928.192.363.288.779.288 1.248 0 .192-.01.384-.032.576a264.448 264.448 0 0 0-.032 3.2c-.043.512.032.864.224 1.056.213.192.427.288.64.288.192 0 .395-.053.608-.16.213-.107.384-.16.512-.16.085.043.15.128.192.256.043.15.064.277.064.384-.15.15-.32.299-.512.448-.192.15-.405.288-.64.416a4.474 4.474 0 0 1-.64.32 1.343 1.343 0 0 1-.544.128c-.512 0-.896-.075-1.152-.224-.256-.128-.47-.373-.64-.736-.17-.341-.288-.81-.352-1.408-.043-.619-.021-1.483.064-2.592.085-1.11.128-1.835.128-2.176 0-.555-.117-.939-.352-1.152-.235-.235-.533-.352-.896-.352-.277 0-.576.053-.896.16a4.152 4.152 0 0 0-.544.224Zm13.541 7.424c-1.215-.128-2.186-.661-2.912-1.6-.725-.939-1.088-2.133-1.088-3.584 0-.853.128-1.739.384-2.656a12.43 12.43 0 0 1 1.088-2.656 14.685 14.685 0 0 1 1.664-2.464 12.12 12.12 0 0 1 2.08-1.984c1.174-.875 2.272-1.312 3.296-1.312.683.363 1.355 1.12 2.017 2.272h.288a1.19 1.19 0 0 1 .288-.032c1.13 0 1.695 1.003 1.695 3.008 0 1.344-.224 2.624-.672 3.84a11.158 11.158 0 0 1-1.823 3.264 10.771 10.771 0 0 1-2.785 2.496 11.075 11.075 0 0 1-3.52 1.408Zm1.633-10.08c-.363.49-.704 1.024-1.024 1.6-.32.576-.598 1.163-.832 1.76a11.132 11.132 0 0 0-.545 1.696 6.234 6.234 0 0 0-.191 1.44c0 .512.085 1.003.255 1.472.171.47.363.736.576.8a6.967 6.967 0 0 0 2.625-1.184 8.562 8.562 0 0 0 2.08-2.208 10.294 10.294 0 0 0 1.376-2.976c.34-1.11.512-2.293.512-3.552 0-.555-.032-.992-.096-1.312a2.42 2.42 0 0 0-.32-.832 7.051 7.051 0 0 0-2.529 1.344 13.496 13.496 0 0 0-1.887 1.952Zm27.213-.864c-.342.021-.758.245-1.248.672-.491.405-1.024.939-1.6 1.6a56.572 56.572 0 0 0-1.76 2.144c-.598.79-1.184 1.579-1.76 2.368-.555.768-1.078 1.493-1.569 2.176-.49.683-.906 1.227-1.248 1.632a3.435 3.435 0 0 1-1.215-.832 3.42 3.42 0 0 1-.736-1.408c.106-.661.255-1.344.447-2.048.193-.725.438-1.472.737-2.24.32-.768.703-1.568 1.151-2.4a28.8 28.8 0 0 1 1.697-2.688c-.32.021-.758.256-1.313.704-.554.427-1.152.992-1.791 1.696a34.083 34.083 0 0 0-1.984 2.336 60.929 60.929 0 0 0-1.92 2.528c-.79 1.11-1.451 2.08-1.985 2.912-.512.832-.885 1.323-1.12 1.472-.554-.405-.938-.843-1.152-1.312a6.75 6.75 0 0 1-.48-1.568 16.16 16.16 0 0 1 .224-1.92c.15-.768.352-1.557.608-2.368a31.624 31.624 0 0 1 1.889-4.64c.789-1.536 1.546-2.944 2.272-4.224.597.128 1.13.33 1.6.608.49.277 1.002.683 1.536 1.216-.214.661-.544 1.365-.992 2.112a299.95 299.95 0 0 0-1.409 2.304 28.1 28.1 0 0 0-1.343 2.496 9.09 9.09 0 0 0-.8 2.592c.597-.853 1.3-1.835 2.111-2.944a55.81 55.81 0 0 1 2.529-3.136c.874-.981 1.738-1.813 2.591-2.496.854-.683 1.622-1.024 2.304-1.024.257 0 .534.043.833.128a4.808 4.808 0 0 1 1.471.704c.171.107.267.192.288.256-.106.427-.362 1.013-.768 1.76-.384.725-.8 1.493-1.248 2.304-.447.81-.863 1.6-1.247 2.368-.384.747-.608 1.344-.672 1.792 1.045-1.43 2.026-2.72 2.944-3.872.917-1.173 1.78-2.176 2.592-3.008.81-.832 1.557-1.472 2.24-1.92.704-.448 1.365-.672 1.983-.672.427 0 .822.117 1.184.352.385.213.651.533.8.96-.192.64-.512 1.408-.96 2.304-.426.896-.864 1.845-1.312 2.848a47.087 47.087 0 0 0-1.215 2.912c-.342.96-.513 1.824-.513 2.592 0 .448.064.747.192.896.128.128.31.192.544.192.257 0 .491-.043.705-.128.234-.107.405-.16.511-.16a.474.474 0 0 1 .224.32c.022.128.032.245.032.352a6.75 6.75 0 0 1-1.312.832c-.447.235-.949.352-1.503.352-.512 0-.94-.085-1.28-.256a2.304 2.304 0 0 1-.8-.704 2.777 2.777 0 0 1-.448-1.024 5.752 5.752 0 0 1-.128-1.248c0-.725.096-1.44.288-2.144.191-.725.416-1.408.672-2.048.277-.661.565-1.27.864-1.824.298-.576.554-1.088.767-1.536ZM57.91 54.12c-1.216-.128-2.186-.661-2.912-1.6-.725-.939-1.088-2.133-1.088-3.584 0-.853.128-1.739.384-2.656s.619-1.803 1.088-2.656a14.685 14.685 0 0 1 1.664-2.464 12.12 12.12 0 0 1 2.08-1.984c1.174-.875 2.272-1.312 3.296-1.312.683.363 1.355 1.12 2.016 2.272h.288a1.19 1.19 0 0 1 .288-.032c1.13 0 1.696 1.003 1.696 3.008 0 1.344-.224 2.624-.672 3.84a11.158 11.158 0 0 1-1.824 3.264 10.771 10.771 0 0 1-2.784 2.496 11.075 11.075 0 0 1-3.52 1.408Zm1.632-10.08c-.362.49-.704 1.024-1.024 1.6-.32.576-.597 1.163-.832 1.76a11.132 11.132 0 0 0-.544 1.696 6.234 6.234 0 0 0-.192 1.44c0 .512.086 1.003.256 1.472.17.47.363.736.576.8a6.968 6.968 0 0 0 2.624-1.184 8.564 8.564 0 0 0 2.08-2.208 10.294 10.294 0 0 0 1.376-2.976c.342-1.11.512-2.293.512-3.552 0-.555-.032-.992-.096-1.312a2.42 2.42 0 0 0-.32-.832 7.05 7.05 0 0 0-2.528 1.344 13.491 13.491 0 0 0-1.888 1.952Zm6.381 19.552c-.298-.085-.47-.405-.512-.96a5.447 5.447 0 0 1-.192-.992 23.843 23.843 0 0 1-.032-1.312c0-.448.075-1.067.224-1.856.15-.768.352-1.643.608-2.624.278-.981.608-2.037.992-3.168.384-1.152.81-2.315 1.28-3.488a553.992 553.992 0 0 1 1.504-3.808 86.002 86.002 0 0 0 1.056-2.816c.299-.79.534-1.44.704-1.952.192-.512.342-.95.448-1.312.086-.256.214-.565.384-.928.17-.363.363-.725.576-1.088.235-.384.47-.736.704-1.056.235-.341.448-.597.64-.768.747.107 1.45.299 2.112.576.662.277 1.067.544 1.216.8-.298.277-.64.715-1.024 1.312a19.84 19.84 0 0 0-1.12 1.92 23.853 23.853 0 0 0-.992 2.112 16.212 16.212 0 0 0-.672 1.92c.214-.363.49-.757.832-1.184.342-.427.864-1.013 1.568-1.76.79-.81 1.526-1.43 2.208-1.856.704-.448 1.312-.672 1.824-.672.81 0 1.472.224 1.984.672.534.448.8 1.024.8 1.728 0 1.536-.256 3.061-.768 4.576a13.653 13.653 0 0 1-2.208 4.064 9.43 9.43 0 0 1-1.28 1.344c-.49.427-1.002.81-1.536 1.152a9.638 9.638 0 0 1-1.568.768c-.512.192-.97.288-1.376.288A2.26 2.26 0 0 1 73.284 53c-.277-.17-.47-.373-.576-.608.832-.49 1.643-1.173 2.432-2.048a18.146 18.146 0 0 0 2.176-3.008 22.861 22.861 0 0 0 1.76-3.712 22.78 22.78 0 0 0 1.152-4.032c-.81.427-1.546.896-2.208 1.408-.64.49-1.28 1.141-1.92 1.952-.768.939-1.376 1.696-1.824 2.272a73.223 73.223 0 0 0-1.12 1.472c-.277.405-.512.79-.704 1.152-.17.341-.362.768-.576 1.28-.298.683-.65 1.59-1.056 2.72-.384 1.11-.79 2.357-1.216 3.744a269.831 269.831 0 0 0-1.248 4.416c-.405 1.579-.8 3.147-1.184 4.704-.234-.043-.437-.213-.608-.512-.17-.192-.298-.33-.384-.416a.583.583 0 0 0-.256-.192Zm24.258-15.04c.533-.875.853-1.568.96-2.08.128-.533.16-.97.096-1.312-.064-.576-.33-.79-.8-.64-.192.064-.374.17-.544.32-.17.15-.342.31-.512.48-.17.17-.342.33-.512.48a1.045 1.045 0 0 0-.16.128 3.843 3.843 0 0 1-.128.288c-.107.235-.235.576-.384 1.024-.15.448-.299.917-.448 1.408-.15.49-.278.97-.384 1.44-.086.47-.128.843-.128 1.12 0 .17.021.299.064.384.064.085.117.15.16.192.32-.128.725-.48 1.216-1.056.49-.576.992-1.301 1.504-2.176Zm-.736-4.288c.17-.192.341-.373.512-.544.298-.299.576-.512.832-.64.618-.064 1.098.053 1.44.352.341.299.554.757.64 1.376 0 .064.01.128.032.192.106-.192.213-.373.32-.544.256-.47.47-.939.64-1.408.085-.256.192-.555.32-.896.15-.363.32-.736.512-1.12.213-.384.448-.768.704-1.152.277-.405.597-.779.96-1.12.277 0 .576.032.896.096.32.064.618.15.896.256a3.2 3.2 0 0 1 .768.32c.213.107.373.224.48.352-.384.939-.81 1.867-1.28 2.784-.47.917-.907 1.824-1.312 2.72a22.18 22.18 0 0 0-1.024 2.624 8.444 8.444 0 0 0-.416 2.56c0 .448.032.843.096 1.184.085.32.17.597.256.832.085.213.16.395.224.544.085.15.128.277.128.384 0 .021-.022.053-.064.096-.022.021-.043.032-.064.032a2.29 2.29 0 0 1-.576-.096 6.222 6.222 0 0 1-.8-.288 9.826 9.826 0 0 1-.864-.384 9.887 9.887 0 0 1-.8-.48 2.582 2.582 0 0 1-.832-1.28c-.128-.512-.192-.95-.192-1.312 0-.448.053-.832.16-1.152-.086 0-.278.17-.576.512-.299.341-.63.747-.992 1.216a77.605 77.605 0 0 1-1.792 2.368 4.611 4.611 0 0 1-.8.704c-.235.17-.427.267-.576.288a4.298 4.298 0 0 1-1.088-.224 4.254 4.254 0 0 1-1.056-.48 4.208 4.208 0 0 1-.864-.768 2.518 2.518 0 0 1-.48-1.024c0-.597.01-1.088.032-1.472.042-.384.117-.8.224-1.248a27 27 0 0 1 .832-2.752 31.272 31.272 0 0 1 1.312-3.008 20.726 20.726 0 0 1 1.632-2.784c.618-.875 1.27-1.557 1.952-2.048.192 0 .416.021.672.064.256.021.512.075.768.16.277.085.533.192.768.32.256.107.47.256.64.448-.192.213-.672.928-1.44 2.144-.555.832-1.142 1.93-1.76 3.296Zm19.268 8.032a2.59 2.59 0 0 1-.832-1.28c-.128-.512-.192-.95-.192-1.312 0-.448.054-.832.16-1.152-.085 0-.277.17-.576.512a26.76 26.76 0 0 0-.992 1.216 72.54 72.54 0 0 1-1.792 2.368 4.597 4.597 0 0 1-.8.704c-.234.17-.426.267-.576.288a4.302 4.302 0 0 1-1.088-.224 4.277 4.277 0 0 1-1.056-.48 4.208 4.208 0 0 1-.864-.768 2.521 2.521 0 0 1-.48-1.024c0-.597.01-1.088.032-1.472.043-.384.118-.8.224-1.248.192-.81.47-1.728.832-2.752a31.447 31.447 0 0 1 1.312-3.008 20.811 20.811 0 0 1 1.632-2.784c.619-.875 1.27-1.557 1.952-2.048.192 0 .416.021.672.064.256.021.512.075.768.16.278.085.534.192.768.32.256.107.47.256.64.448-.192.213-.682.928-1.472 2.144-.768 1.216-1.632 2.965-2.592 5.248a11.58 11.58 0 0 0-.384 1.024 60.65 60.65 0 0 0-.448 1.408c-.149.49-.277.97-.384 1.44-.085.47-.128.843-.128 1.12 0 .17.022.299.064.384.064.085.118.15.16.192.32-.128.726-.48 1.216-1.056.491-.576 1.174-1.461 2.048-2.656l.736-1.024c.299-.384.598-.79.896-1.216.299-.448.576-.907.832-1.376.278-.47.502-.939.672-1.408.086-.256.192-.555.32-.896.15-.363.32-.736.512-1.12.214-.384.448-.768.704-1.152a6.9 6.9 0 0 1 .96-1.12c.278 0 .576.032.896.096.32.064.619.15.896.256.299.085.555.192.768.32.214.107.374.224.48.352-.384.939-.81 1.867-1.28 2.784a64.012 64.012 0 0 0-1.312 2.72c-.405.875-.746 1.75-1.024 2.624a8.456 8.456 0 0 0-.416 2.56c0 .448.032.843.096 1.184.086.32.171.597.256.832.086.213.16.395.224.544.086.15.128.277.128.384 0 .021-.021.053-.064.096-.021.021-.042.032-.064.032-.149 0-.341-.032-.576-.096a6.282 6.282 0 0 1-.8-.288 9.932 9.932 0 0 1-.864-.384 9.957 9.957 0 0 1-.8-.48Zm3.968-16.064a5.578 5.578 0 0 1-1.344-.32 5.008 5.008 0 0 1-1.344-.832 6.954 6.954 0 0 1-1.12-1.408c-.32-.576-.554-1.27-.704-2.08.171-.363.48-.597.928-.704.47-.107.896-.203 1.28-.288.299 1.365.726 2.325 1.28 2.88.576.555 1.195.875 1.856.96.811-.192 1.472-.565 1.984-1.12.534-.576.982-1.28 1.344-2.112.214.064.384.267.512.608-.213 1.045-.736 1.973-1.568 2.784-.832.79-1.866 1.333-3.104 1.632Zm14.542 17.888c-1.216-.128-2.187-.661-2.912-1.6-.726-.939-1.088-2.133-1.088-3.584 0-.853.128-1.739.384-2.656s.618-1.803 1.088-2.656a14.667 14.667 0 0 1 1.664-2.464c.64-.768 1.333-1.43 2.08-1.984 1.173-.875 2.272-1.312 3.296-1.312.682.363 1.354 1.12 2.016 2.272h.288c.085-.021.181-.032.288-.032 1.13 0 1.696 1.003 1.696 3.008 0 1.344-.224 2.624-.672 3.84a11.172 11.172 0 0 1-1.824 3.264 10.771 10.771 0 0 1-2.784 2.496 11.078 11.078 0 0 1-3.52 1.408Zm1.632-10.08c-.363.49-.704 1.024-1.024 1.6A14.56 14.56 0 0 0 127 47.4a11.099 11.099 0 0 0-.544 1.696 6.234 6.234 0 0 0-.192 1.44c0 .512.085 1.003.256 1.472.17.47.362.736.576.8a6.972 6.972 0 0 0 2.624-1.184 8.574 8.574 0 0 0 2.08-2.208 10.302 10.302 0 0 0 1.376-2.976c.341-1.11.512-2.293.512-3.552 0-.555-.032-.992-.096-1.312a2.426 2.426 0 0 0-.32-.832 7.043 7.043 0 0 0-2.528 1.344 13.443 13.443 0 0 0-1.888 1.952Zm27.213-.864c-.342.021-.758.245-1.248.672-.491.405-1.024.939-1.6 1.6a55.624 55.624 0 0 0-1.76 2.144c-.598.79-1.184 1.579-1.76 2.368-.555.768-1.078 1.493-1.568 2.176a28.15 28.15 0 0 1-1.248 1.632 3.426 3.426 0 0 1-1.216-.832 3.408 3.408 0 0 1-.736-1.408c.106-.661.256-1.344.448-2.048.192-.725.437-1.472.736-2.24.32-.768.704-1.568 1.152-2.4a28.593 28.593 0 0 1 1.696-2.688c-.32.021-.758.256-1.312.704-.555.427-1.152.992-1.792 1.696a33.887 33.887 0 0 0-1.984 2.336 60.405 60.405 0 0 0-1.92 2.528 73.115 73.115 0 0 0-1.984 2.912c-.512.832-.886 1.323-1.12 1.472-.555-.405-.939-.843-1.152-1.312a6.682 6.682 0 0 1-.48-1.568c.021-.512.096-1.152.224-1.92.149-.768.352-1.557.608-2.368a31.547 31.547 0 0 1 1.888-4.64 116.39 116.39 0 0 1 2.272-4.224c.597.128 1.13.33 1.6.608.49.277 1.002.683 1.536 1.216-.214.661-.544 1.365-.992 2.112-.448.725-.918 1.493-1.408 2.304-.491.81-.939 1.643-1.344 2.496a9.068 9.068 0 0 0-.8 2.592 176.62 176.62 0 0 1 2.112-2.944 55.498 55.498 0 0 1 2.528-3.136c.874-.981 1.738-1.813 2.592-2.496.853-.683 1.621-1.024 2.304-1.024.256 0 .533.043.832.128.298.085.576.192.832.32s.469.256.64.384c.17.107.266.192.288.256-.107.427-.363 1.013-.768 1.76-.384.725-.8 1.493-1.248 2.304-.448.81-.864 1.6-1.248 2.368-.384.747-.608 1.344-.672 1.792 1.045-1.43 2.026-2.72 2.944-3.872.917-1.173 1.781-2.176 2.592-3.008.81-.832 1.557-1.472 2.24-1.92.704-.448 1.365-.672 1.984-.672.426 0 .821.117 1.184.352.384.213.65.533.8.96-.192.64-.512 1.408-.96 2.304-.427.896-.864 1.845-1.312 2.848a46.66 46.66 0 0 0-1.216 2.912c-.342.96-.512 1.824-.512 2.592 0 .448.064.747.192.896.128.128.309.192.544.192.256 0 .49-.043.704-.128.234-.107.405-.16.512-.16a.477.477 0 0 1 .224.32c.021.128.032.245.032.352a6.76 6.76 0 0 1-1.312.832c-.448.235-.95.352-1.504.352-.512 0-.939-.085-1.28-.256a2.301 2.301 0 0 1-.8-.704 2.76 2.76 0 0 1-.448-1.024 5.709 5.709 0 0 1-.128-1.248c0-.725.096-1.44.288-2.144.192-.725.416-1.408.672-2.048.277-.661.565-1.27.864-1.824.298-.576.554-1.088.768-1.536Zm16.533-9.792c1.386-1.472 2.08-2.773 2.08-3.904 0-.085-.022-.15-.064-.192-1.686 1.579-3.19 3.456-4.512 5.632.597-.256 1.077-.501 1.44-.736.384-.256.736-.523 1.056-.8Zm2.432.928c-.662.64-1.366 1.13-2.112 1.472-.726.341-1.995.619-3.808.832-1.451 2.752-2.656 5.92-3.616 9.504a27.692 27.692 0 0 1 2.016-3.2 28.665 28.665 0 0 1 2.208-2.752c.746-.79 1.45-1.419 2.112-1.888.682-.47 1.248-.704 1.696-.704.341.085.672.235.992.448.32.213.608.48.863.8.257.299.47.63.641.992.17.341.277.704.32 1.088-.022.896-.182 1.856-.48 2.88a16.56 16.56 0 0 1-1.152 2.976c-.47.981-1.014 1.92-1.632 2.816a15.548 15.548 0 0 1-1.92 2.368c-.662.661-1.334 1.195-2.016 1.6-.662.405-1.291.608-1.888.608-.256 0-.523-.032-.8-.096a2.93 2.93 0 0 1-.736-.224 2.561 2.561 0 0 1-.544-.288c-.128-.107-.192-.213-.192-.32.981-.661 1.941-1.504 2.88-2.528a26.387 26.387 0 0 0 2.56-3.36 24.426 24.426 0 0 0 1.952-3.776c.533-1.301.896-2.55 1.088-3.744 0-.256-.139-.427-.416-.512-.299 0-.715.267-1.248.8-.512.512-1.088 1.173-1.728 1.984a48.29 48.29 0 0 0-1.92 2.72 43.85 43.85 0 0 0-1.76 3.008 36.81 36.81 0 0 0-1.376 2.784c-.363.853-.566 1.547-.608 2.08-.214 0-.395-.213-.544-.64a.98.98 0 0 0-.225-.32 2.9 2.9 0 0 0-.511-.448 3.728 3.728 0 0 1-.32-.288 1.74 1.74 0 0 1-.224-.32c-.086-.17-.128-.448-.128-.832 0-1.259.16-2.677.48-4.256.32-1.579.736-3.19 1.248-4.832a48.95 48.95 0 0 1 1.856-4.832 49.318 49.318 0 0 1 2.176-4.384c.768-1.323 1.536-2.443 2.304-3.36.768-.917 1.493-1.525 2.176-1.824.213.064.469.17.768.32.298.15.597.32.896.512.298.192.576.384.832.576.277.192.48.363.608.512.576.597.864 1.344.864 2.24 0 .683-.139 1.376-.416 2.08a4.553 4.553 0 0 1-1.216 1.728Zm13.557 5.44c-.085 1.323-.32 2.464-.704 3.424a7.52 7.52 0 0 1-1.664 2.496c-.704.704-1.568 1.344-2.592 1.92-1.024.576-2.218 1.13-3.584 1.664 0 .128-.01.267-.032.416v.416c0 .277.022.565.064.864.043.299.118.576.224.832.107.256.256.47.448.64.192.15.438.224.736.224.576 0 1.142-.128 1.696-.384a8.881 8.881 0 0 0 1.568-.928c.512-.384.982-.79 1.408-1.216a55.77 55.77 0 0 0 1.184-1.216c.214.192.395.373.544.544-.96 1.28-2.016 2.347-3.168 3.2-1.13.832-2.208 1.365-3.232 1.6-1.472-.17-2.624-.704-3.456-1.6-.81-.917-1.216-2.016-1.216-3.296 0-.875.118-1.76.352-2.656a14 14 0 0 1 1.024-2.624c.448-.853.96-1.653 1.536-2.4a13.776 13.776 0 0 1 1.888-1.952 9.642 9.642 0 0 1 2.08-1.312c.726-.32 1.44-.48 2.144-.48.982.128 1.899.736 2.752 1.824Zm-2.208 1.056c-.576.085-1.173.32-1.792.704-.618.384-1.205.896-1.76 1.536a12.745 12.745 0 0 0-1.472 2.24c-.448.853-.8 1.77-1.056 2.752 1.707-.853 3.126-1.899 4.256-3.136 1.131-1.259 1.739-2.624 1.824-4.096Zm15.37 1.376c-.107.256-.224.512-.352.768a72.566 72.566 0 0 0-1.344 2.848 46.66 46.66 0 0 0-1.216 2.912c-.342.96-.512 1.824-.512 2.592 0 .448.064.747.192.896.128.128.309.192.544.192.256 0 .49-.043.704-.128.234-.107.405-.16.512-.16a.477.477 0 0 1 .224.32c.021.128.032.245.032.352a6.76 6.76 0 0 1-1.312.832c-.448.235-.95.352-1.504.352-.512 0-.939-.085-1.28-.256a2.301 2.301 0 0 1-.8-.704 2.76 2.76 0 0 1-.448-1.024 5.709 5.709 0 0 1-.128-1.248c0-.725.096-1.44.288-2.144.192-.725.416-1.408.672-2.048.277-.661.565-1.27.864-1.824.298-.576.554-1.088.768-1.536l.672-1.6a3.597 3.597 0 0 0-.288-.192 4.597 4.597 0 0 0-.864-.384 5.768 5.768 0 0 0-.928-.288c-.278-.085-.491-.128-.64-.128-.214 0-.438.075-.672.224a3.142 3.142 0 0 0-.608.48 6.161 6.161 0 0 0-.512.576c-.128.192-.203.33-.224.416a3.767 3.767 0 0 1-1.376-.768c-.384-.341-.63-.885-.736-1.632.533-.875 1.024-1.515 1.472-1.92.469-.405 1.034-.661 1.696-.768a18.4 18.4 0 0 1 2.88 1.504 13.92 13.92 0 0 1 2.368 1.824c.32-.17.618-.341.896-.512.298-.17.661-.299 1.088-.384.512.256.874.79 1.088 1.6a2.61 2.61 0 0 1-.704.864c-.086.064-.256.096-.512.096Zm13.11-2.112c.213 0 .458.043.736.128.298.064.565.16.8.288.234.107.426.224.576.352.17.128.256.245.256.352a43.088 43.088 0 0 0-1.184 2.72c-.363.896-.672 1.76-.928 2.592-.256.832-.459 1.61-.608 2.336-.128.725-.192 1.355-.192 1.888 0 .597.064 1.099.192 1.504.128.384.341.661.64.832-.256.17-.587.31-.992.416a4.33 4.33 0 0 1-1.088.16c-1.152 0-1.728-.79-1.728-2.368 0-1.216.405-2.88 1.216-4.992-.427.981-.918 1.91-1.472 2.784-.555.853-1.12 1.61-1.696 2.272a10.322 10.322 0 0 1-1.76 1.632c-.576.405-1.11.65-1.6.736-.79-.043-1.43-.416-1.92-1.12-.491-.725-.736-1.643-.736-2.752 0-1.195.256-2.453.768-3.776a17.3 17.3 0 0 1 1.952-3.68c.81-1.13 1.685-2.07 2.624-2.816.938-.768 1.845-1.173 2.72-1.216.213.064.448.192.704.384.277.192.533.416.768.672.256.256.469.523.64.8.17.256.266.48.288.672-.854.128-1.739.544-2.656 1.248a13.403 13.403 0 0 0-2.464 2.56 14.911 14.911 0 0 0-1.792 3.168c-.47 1.13-.704 2.187-.704 3.168 0 .405.149.661.448.768.618-.128 1.333-.65 2.144-1.568.81-.939 1.792-2.379 2.944-4.32.213-.384.448-.81.704-1.28.277-.47.554-.96.832-1.472a53.68 53.68 0 0 0 .8-1.536c.277-.533.533-1.045.768-1.536Zm15.447-.32c-.085 1.323-.32 2.464-.704 3.424a7.535 7.535 0 0 1-1.664 2.496c-.704.704-1.568 1.344-2.592 1.92-1.024.576-2.219 1.13-3.584 1.664 0 .128-.011.267-.032.416v.416c0 .277.021.565.064.864.043.299.117.576.224.832s.256.47.448.64c.192.15.437.224.736.224a4.01 4.01 0 0 0 1.696-.384 8.917 8.917 0 0 0 1.568-.928c.512-.384.981-.79 1.408-1.216a55.77 55.77 0 0 0 1.184-1.216c.213.192.395.373.544.544-.96 1.28-2.016 2.347-3.168 3.2-1.131.832-2.208 1.365-3.232 1.6-1.472-.17-2.624-.704-3.456-1.6-.811-.917-1.216-2.016-1.216-3.296 0-.875.117-1.76.352-2.656.256-.917.597-1.792 1.024-2.624.448-.853.96-1.653 1.536-2.4a13.72 13.72 0 0 1 1.888-1.952 9.642 9.642 0 0 1 2.08-1.312c.725-.32 1.44-.48 2.144-.48.981.128 1.899.736 2.752 1.824Zm-2.208 1.056c-.576.085-1.173.32-1.792.704-.619.384-1.205.896-1.76 1.536a12.745 12.745 0 0 0-1.472 2.24c-.448.853-.8 1.77-1.056 2.752 1.707-.853 3.125-1.899 4.256-3.136 1.131-1.259 1.739-2.624 1.824-4.096Zm22.186 2.368c-.342.021-.758.245-1.248.672-.491.405-1.024.939-1.6 1.6a55.624 55.624 0 0 0-1.76 2.144c-.598.79-1.184 1.579-1.76 2.368-.555.768-1.078 1.493-1.568 2.176a28.15 28.15 0 0 1-1.248 1.632 3.426 3.426 0 0 1-1.216-.832 3.408 3.408 0 0 1-.736-1.408c.106-.661.256-1.344.448-2.048.192-.725.437-1.472.736-2.24.32-.768.704-1.568 1.152-2.4a28.593 28.593 0 0 1 1.696-2.688c-.32.021-.758.256-1.312.704-.555.427-1.152.992-1.792 1.696a34.167 34.167 0 0 0-1.985 2.336 61.24 61.24 0 0 0-1.919 2.528 73.115 73.115 0 0 0-1.984 2.912c-.512.832-.886 1.323-1.12 1.472-.555-.405-.939-.843-1.152-1.312a6.682 6.682 0 0 1-.48-1.568c.021-.512.096-1.152.224-1.92.149-.768.352-1.557.608-2.368a31.547 31.547 0 0 1 1.888-4.64 116.39 116.39 0 0 1 2.272-4.224c.597.128 1.13.33 1.6.608.49.277 1.002.683 1.536 1.216-.214.661-.544 1.365-.992 2.112-.448.725-.918 1.493-1.408 2.304-.491.81-.939 1.643-1.344 2.496a9.068 9.068 0 0 0-.8 2.592c.597-.853 1.301-1.835 2.111-2.944a55.952 55.952 0 0 1 2.529-3.136c.874-.981 1.738-1.813 2.592-2.496.853-.683 1.621-1.024 2.304-1.024.256 0 .533.043.832.128.298.085.576.192.832.32s.469.256.64.384c.17.107.266.192.288.256-.107.427-.363 1.013-.768 1.76-.384.725-.8 1.493-1.249 2.304-.447.81-.863 1.6-1.247 2.368-.384.747-.608 1.344-.672 1.792 1.045-1.43 2.026-2.72 2.944-3.872.917-1.173 1.781-2.176 2.592-3.008.81-.832 1.557-1.472 2.24-1.92.704-.448 1.365-.672 1.984-.672.426 0 .821.117 1.184.352.384.213.65.533.8.96-.192.64-.512 1.408-.96 2.304-.427.896-.864 1.845-1.312 2.848a46.66 46.66 0 0 0-1.216 2.912c-.342.96-.512 1.824-.512 2.592 0 .448.064.747.192.896.128.128.309.192.544.192.256 0 .49-.043.704-.128.234-.107.405-.16.512-.16a.477.477 0 0 1 .224.32c.021.128.032.245.032.352a6.76 6.76 0 0 1-1.312.832c-.448.235-.95.352-1.504.352-.512 0-.939-.085-1.28-.256a2.301 2.301 0 0 1-.8-.704 2.76 2.76 0 0 1-.448-1.024 5.709 5.709 0 0 1-.128-1.248c0-.725.096-1.44.288-2.144.192-.725.416-1.408.672-2.048.277-.661.565-1.27.864-1.824.298-.576.554-1.088.768-1.536Zm25.053-3.424c-.085 1.323-.32 2.464-.704 3.424a7.52 7.52 0 0 1-1.664 2.496c-.704.704-1.568 1.344-2.592 1.92-1.024.576-2.218 1.13-3.584 1.664 0 .128-.01.267-.032.416v.416c0 .277.022.565.064.864.043.299.118.576.224.832.107.256.256.47.448.64.192.15.438.224.736.224.576 0 1.142-.128 1.696-.384a8.881 8.881 0 0 0 1.568-.928c.512-.384.982-.79 1.408-1.216a55.77 55.77 0 0 0 1.184-1.216c.214.192.395.373.544.544-.96 1.28-2.016 2.347-3.168 3.2-1.13.832-2.208 1.365-3.232 1.6-1.472-.17-2.624-.704-3.456-1.6-.81-.917-1.216-2.016-1.216-3.296 0-.875.118-1.76.352-2.656a14 14 0 0 1 1.024-2.624c.448-.853.96-1.653 1.536-2.4a13.776 13.776 0 0 1 1.888-1.952 9.642 9.642 0 0 1 2.08-1.312c.726-.32 1.44-.48 2.144-.48.982.128 1.899.736 2.752 1.824Zm-2.208 1.056c-.576.085-1.173.32-1.792.704-.618.384-1.205.896-1.76 1.536a12.745 12.745 0 0 0-1.472 2.24c-.448.853-.8 1.77-1.056 2.752 1.707-.853 3.126-1.899 4.256-3.136 1.131-1.259 1.739-2.624 1.824-4.096Zm8.522 4.96a40.274 40.274 0 0 0-1.184 2.944c-.278 1.173-.416 2.09-.416 2.752 0 .939.352 1.461 1.056 1.568a7.405 7.405 0 0 0 1.824-.48 6.052 6.052 0 0 0 1.536-.896c.128.192.202.352.224.48-.128.192-.352.416-.672.672-.299.256-.63.501-.992.736-.363.256-.715.47-1.056.64-.342.17-.598.267-.768.288a4.8 4.8 0 0 1-1.6-.352 6.964 6.964 0 0 1-1.472-.8 4.937 4.937 0 0 1-1.056-1.056c-.278-.405-.416-.8-.416-1.184 0-.363.021-.768.064-1.216.042-.47.117-.907.224-1.312.042-.17.096-.341.16-.512v-.064c.149-.49.33-.981.544-1.472.256-.64.533-1.237.832-1.792.298-.576.554-1.088.768-1.536.682-1.45 1.141-2.528 1.376-3.232.042-.213-.032-.384-.224-.512-.256.128-.534.373-.832.736-.214.277-.491.608-.832.992-.32.384-.523.661-.608.832-.086.15-.171.288-.256.416a2.985 2.985 0 0 1-.16.288c-.235.17-.438.17-.608 0-.128-.15-.182-.363-.16-.64.042-.299.149-.63.32-.992.917-1.344 1.653-2.24 2.208-2.688.213-.192.426-.341.64-.448v-.064c.362-.107.672-.139.928-.096.32.128.618.33.896.608.298.256.544.555.736.896.213.341.373.704.48 1.088.106.363.149.736.128 1.12-.15.896-.694 2.325-1.632 4.288Zm9.038 8.352c-1.216-.128-2.187-.661-2.912-1.6-.726-.939-1.088-2.133-1.088-3.584 0-.853.128-1.739.384-2.656s.618-1.803 1.088-2.656a14.667 14.667 0 0 1 1.664-2.464c.64-.768 1.333-1.43 2.08-1.984 1.173-.875 2.272-1.312 3.296-1.312.682.363 1.354 1.12 2.016 2.272h.288c.085-.021.181-.032.288-.032 1.13 0 1.696 1.003 1.696 3.008 0 1.344-.224 2.624-.672 3.84a11.172 11.172 0 0 1-1.824 3.264 10.771 10.771 0 0 1-2.784 2.496 11.078 11.078 0 0 1-3.52 1.408Zm1.632-10.08c-.363.49-.704 1.024-1.024 1.6a14.56 14.56 0 0 0-.832 1.76 11.099 11.099 0 0 0-.544 1.696 6.234 6.234 0 0 0-.192 1.44c0 .512.085 1.003.256 1.472.17.47.362.736.576.8a6.972 6.972 0 0 0 2.624-1.184 8.574 8.574 0 0 0 2.08-2.208 10.302 10.302 0 0 0 1.376-2.976c.341-1.11.512-2.293.512-3.552 0-.555-.032-.992-.096-1.312a2.426 2.426 0 0 0-.32-.832 7.043 7.043 0 0 0-2.528 1.344 13.443 13.443 0 0 0-1.888 1.952Zm21.526-6.56c.554.17 1.077.555 1.568 1.152a5.75 5.75 0 0 1 1.088 1.92c-.235.576-.598 1.27-1.088 2.08-.491.81-.982 1.643-1.472 2.496a57.596 57.596 0 0 0-1.344 2.4c-.384.747-.608 1.365-.672 1.856.341-.363.714-.779 1.12-1.248.426-.49.832-.97 1.216-1.44.405-.49.778-.928 1.12-1.312.341-.405.608-.704.8-.896.405-.427.885-.917 1.44-1.472.554-.576 1.13-1.11 1.728-1.6a12.023 12.023 0 0 1 1.856-1.28c.618-.363 1.184-.544 1.696-.544.554 0 1.013.192 1.376.576.384.363.682.747.896 1.152 0 .043-.086.107-.256.192-.15.064-.374.267-.672.608-.299.384-.64.917-1.024 1.6a33.904 33.904 0 0 0-1.088 2.176c-.342.768-.63 1.557-.864 2.368-.235.81-.352 1.547-.352 2.208 0 .533.064.875.192 1.024.149.15.352.224.607.224.235 0 .481-.053.736-.16.257-.107.459-.16.609-.16.085.043.149.139.192.288a.796.796 0 0 1 .096.352c-.171.15-.374.299-.608.448-.235.15-.48.288-.737.416a5.792 5.792 0 0 1-.767.32 1.894 1.894 0 0 1-.64.128c-.619 0-1.131-.096-1.536-.288a2.382 2.382 0 0 1-.928-.704 2.762 2.762 0 0 1-.448-1.056 6.543 6.543 0 0 1-.064-2.208 7.29 7.29 0 0 1 .256-1.12c.128-.448.309-.97.544-1.568.234-.619.533-1.355.896-2.208-.043 0-.331.15-.864.448-.534.299-1.11.757-1.728 1.376a41.66 41.66 0 0 0-2.721 2.848 54.218 54.218 0 0 0-2.431 3.136c-.47.661-.886 1.216-1.248 1.664-.342.47-.64.779-.896.928a2.336 2.336 0 0 1-.992-1.088 6.38 6.38 0 0 1-.48-1.408c0-.405.053-.917.16-1.536.128-.619.288-1.301.48-2.048.213-.768.469-1.568.768-2.4a39.82 39.82 0 0 1 .992-2.496c.81-1.877 1.546-3.35 2.208-4.416.682-1.067 1.109-1.643 1.28-1.728Zm15.873 16.64c-1.216-.128-2.187-.661-2.912-1.6-.726-.939-1.088-2.133-1.088-3.584 0-.853.128-1.739.384-2.656s.618-1.803 1.088-2.656a14.667 14.667 0 0 1 1.664-2.464c.64-.768 1.333-1.43 2.08-1.984 1.173-.875 2.272-1.312 3.296-1.312.682.363 1.354 1.12 2.016 2.272h.288c.085-.021.181-.032.288-.032 1.13 0 1.696 1.003 1.696 3.008 0 1.344-.224 2.624-.672 3.84a11.172 11.172 0 0 1-1.824 3.264 10.771 10.771 0 0 1-2.784 2.496 11.078 11.078 0 0 1-3.52 1.408Zm1.632-10.08c-.363.49-.704 1.024-1.024 1.6a14.56 14.56 0 0 0-.832 1.76 11.099 11.099 0 0 0-.544 1.696 6.234 6.234 0 0 0-.192 1.44c0 .512.085 1.003.256 1.472.17.47.362.736.576.8a6.972 6.972 0 0 0 2.624-1.184 8.574 8.574 0 0 0 2.08-2.208 10.302 10.302 0 0 0 1.376-2.976c.341-1.11.512-2.293.512-3.552 0-.555-.032-.992-.096-1.312a2.426 2.426 0 0 0-.32-.832 7.043 7.043 0 0 0-2.528 1.344 13.443 13.443 0 0 0-1.888 1.952Zm27.213-.864c-.342.021-.758.245-1.248.672-.491.405-1.024.939-1.6 1.6a55.624 55.624 0 0 0-1.76 2.144c-.598.79-1.184 1.579-1.76 2.368-.555.768-1.078 1.493-1.568 2.176a28.15 28.15 0 0 1-1.248 1.632 3.426 3.426 0 0 1-1.216-.832 3.408 3.408 0 0 1-.736-1.408c.106-.661.256-1.344.448-2.048.192-.725.437-1.472.736-2.24.32-.768.704-1.568 1.152-2.4a28.593 28.593 0 0 1 1.696-2.688c-.32.021-.758.256-1.312.704-.555.427-1.152.992-1.792 1.696a33.887 33.887 0 0 0-1.984 2.336 60.405 60.405 0 0 0-1.92 2.528 73.115 73.115 0 0 0-1.984 2.912c-.512.832-.886 1.323-1.12 1.472-.555-.405-.939-.843-1.152-1.312a6.682 6.682 0 0 1-.48-1.568c.021-.512.096-1.152.224-1.92.149-.768.352-1.557.608-2.368a31.547 31.547 0 0 1 1.888-4.64 116.39 116.39 0 0 1 2.272-4.224c.597.128 1.13.33 1.6.608.49.277 1.002.683 1.536 1.216-.214.661-.544 1.365-.992 2.112-.448.725-.918 1.493-1.408 2.304-.491.81-.939 1.643-1.344 2.496a9.068 9.068 0 0 0-.8 2.592 176.62 176.62 0 0 1 2.112-2.944 55.498 55.498 0 0 1 2.528-3.136c.874-.981 1.738-1.813 2.592-2.496.853-.683 1.621-1.024 2.304-1.024.256 0 .533.043.832.128.298.085.576.192.832.32s.469.256.64.384c.17.107.266.192.288.256-.107.427-.363 1.013-.768 1.76-.384.725-.8 1.493-1.248 2.304-.448.81-.864 1.6-1.248 2.368-.384.747-.608 1.344-.672 1.792 1.045-1.43 2.026-2.72 2.944-3.872.917-1.173 1.781-2.176 2.592-3.008.81-.832 1.557-1.472 2.24-1.92.704-.448 1.365-.672 1.984-.672.426 0 .821.117 1.184.352.384.213.65.533.8.96-.192.64-.512 1.408-.96 2.304-.427.896-.864 1.845-1.312 2.848a46.66 46.66 0 0 0-1.216 2.912c-.342.96-.512 1.824-.512 2.592 0 .448.064.747.192.896.128.128.309.192.544.192.256 0 .49-.043.704-.128.234-.107.405-.16.512-.16a.477.477 0 0 1 .224.32c.021.128.032.245.032.352a6.76 6.76 0 0 1-1.312.832c-.448.235-.95.352-1.504.352-.512 0-.939-.085-1.28-.256a2.301 2.301 0 0 1-.8-.704 2.76 2.76 0 0 1-.448-1.024 5.709 5.709 0 0 1-.128-1.248c0-.725.096-1.44.288-2.144.192-.725.416-1.408.672-2.048.277-.661.565-1.27.864-1.824.298-.576.554-1.088.768-1.536Zm3.637 20.416c-.299-.085-.47-.405-.512-.96a5.346 5.346 0 0 1-.192-.992 23.262 23.262 0 0 1-.032-1.312c0-.448.074-1.067.224-1.856.149-.768.352-1.643.608-2.624.277-.981.608-2.037.992-3.168a62.7 62.7 0 0 1 1.28-3.488 538.99 538.99 0 0 1 1.504-3.808 88.87 88.87 0 0 0 1.056-2.816c.298-.79.533-1.44.704-1.952.192-.512.341-.95.448-1.312.085-.256.213-.565.384-.928.17-.363.362-.725.576-1.088.234-.384.469-.736.704-1.056.234-.341.448-.597.64-.768a8.59 8.59 0 0 1 2.112.576c.661.277 1.066.544 1.216.8-.299.277-.64.715-1.024 1.312a19.718 19.718 0 0 0-1.12 1.92 23.601 23.601 0 0 0-.992 2.112 16.104 16.104 0 0 0-.672 1.92c.213-.363.49-.757.832-1.184.341-.427.864-1.013 1.568-1.76.789-.81 1.525-1.43 2.208-1.856.704-.448 1.312-.672 1.824-.672.81 0 1.472.224 1.984.672.533.448.8 1.024.8 1.728 0 1.536-.256 3.061-.768 4.576a13.653 13.653 0 0 1-2.208 4.064 9.48 9.48 0 0 1-1.28 1.344c-.491.427-1.003.81-1.536 1.152a9.662 9.662 0 0 1-1.568.768c-.512.192-.971.288-1.376.288-.384 0-.726-.075-1.024-.224-.278-.17-.47-.373-.576-.608.832-.49 1.642-1.173 2.432-2.048a18.198 18.198 0 0 0 2.176-3.008 22.937 22.937 0 0 0 1.76-3.712 22.78 22.78 0 0 0 1.152-4.032c-.811.427-1.547.896-2.208 1.408-.64.49-1.28 1.141-1.92 1.952-.768.939-1.376 1.696-1.824 2.272a70.624 70.624 0 0 0-1.12 1.472c-.278.405-.512.79-.704 1.152-.171.341-.363.768-.576 1.28a44.21 44.21 0 0 0-1.056 2.72c-.384 1.11-.79 2.357-1.216 3.744a258.355 258.355 0 0 0-1.248 4.416c-.406 1.579-.8 3.147-1.184 4.704-.235-.043-.438-.213-.608-.512-.171-.192-.299-.33-.384-.416a.587.587 0 0 0-.256-.192Zm29.729-23.84c-.085 1.323-.32 2.464-.704 3.424a7.535 7.535 0 0 1-1.664 2.496c-.704.704-1.568 1.344-2.592 1.92-1.024.576-2.219 1.13-3.584 1.664 0 .128-.011.267-.032.416v.416c0 .277.021.565.064.864.043.299.117.576.224.832s.256.47.448.64c.192.15.437.224.736.224a4.01 4.01 0 0 0 1.696-.384 8.917 8.917 0 0 0 1.568-.928c.512-.384.981-.79 1.408-1.216a55.77 55.77 0 0 0 1.184-1.216c.213.192.395.373.544.544-.96 1.28-2.016 2.347-3.168 3.2-1.131.832-2.208 1.365-3.232 1.6-1.472-.17-2.624-.704-3.456-1.6-.811-.917-1.216-2.016-1.216-3.296 0-.875.117-1.76.352-2.656.256-.917.597-1.792 1.024-2.624.448-.853.96-1.653 1.536-2.4a13.72 13.72 0 0 1 1.888-1.952 9.642 9.642 0 0 1 2.08-1.312c.725-.32 1.44-.48 2.144-.48.981.128 1.899.736 2.752 1.824Zm-2.208 1.056c-.576.085-1.173.32-1.792.704-.619.384-1.205.896-1.76 1.536a12.745 12.745 0 0 0-1.472 2.24c-.448.853-.8 1.77-1.056 2.752 1.707-.853 3.125-1.899 4.256-3.136 1.131-1.259 1.739-2.624 1.824-4.096Zm9.098 3.232c-.363.49-.704 1.024-1.024 1.6a14.56 14.56 0 0 0-.832 1.76 11.099 11.099 0 0 0-.544 1.696 6.234 6.234 0 0 0-.192 1.44c0 .512.085 1.003.256 1.472.17.47.362.736.576.8a6.972 6.972 0 0 0 2.624-1.184 8.574 8.574 0 0 0 2.08-2.208 10.302 10.302 0 0 0 1.376-2.976c.341-1.11.512-2.293.512-3.552 0-.555-.032-.992-.096-1.312a2.426 2.426 0 0 0-.32-.832 7.043 7.043 0 0 0-2.528 1.344 13.443 13.443 0 0 0-1.888 1.952Zm7.072-2.208c.064.363.096.79.096 1.28 0 1.344-.224 2.624-.672 3.84a11.172 11.172 0 0 1-1.824 3.264 10.771 10.771 0 0 1-2.784 2.496 11.078 11.078 0 0 1-3.52 1.408c-1.216-.128-2.187-.661-2.912-1.6-.726-.939-1.088-2.133-1.088-3.584 0-.853.128-1.739.384-2.656s.618-1.803 1.088-2.656a14.667 14.667 0 0 1 1.664-2.464c.64-.768 1.333-1.43 2.08-1.984 1.173-.875 2.272-1.312 3.296-1.312.256.128.501.32.736.576l-.512-.768a6.157 6.157 0 0 0-.928-1.28 18.083 18.083 0 0 0-1.024-1.12l-.992-1.056a5.105 5.105 0 0 1-.8-1.12 4.252 4.252 0 0 1-.576-1.632 7.406 7.406 0 0 1 .032-1.824 7.004 7.004 0 0 1 .544-1.76 4.682 4.682 0 0 1 1.056-1.408c.234-.064.565.053.992.352.448.299 1.226.416 2.336.352.405-.128.853-.267 1.344-.416.49-.15 1.002-.267 1.536-.352a3.848 3.848 0 0 1 1.696.128 4.45 4.45 0 0 1 1.024.48c.341.213.64.459.896.736.277.256.49.544.64.864.17.299.256.608.256.928a4.814 4.814 0 0 1-.384.672c-.171.235-.374.47-.608.704a2.9 2.9 0 0 1-.832.576c-.32.128-.694.181-1.12.16.042-.128 0-.31-.128-.544a3.598 3.598 0 0 0-.448-.768 3.292 3.292 0 0 0-.704-.736 2.044 2.044 0 0 0-.864-.48 1.47 1.47 0 0 0-.736-.064 3.383 3.383 0 0 0-.64.128c-.214.043-.448.085-.704.128a1.638 1.638 0 0 1-.32.032l.032.064c-.043 0-.075.01-.096.032-2.027-.107-2.646.555-1.856 1.984a318.051 318.051 0 0 0 2.752 4.8c.106.17.17.277.192.32.469.81.736 1.27.8 1.376l.256.448c.106.128.224.31.352.544.576 1.003.906 1.973.992 2.912Zm13.933 2.784c.32-.619.565-1.099.736-1.44 1.173-2.56 2.069-3.84 2.687-3.84.427 0 .822.117 1.185.352.384.213.65.533.8.96-.192.64-.512 1.408-.96 2.304-.427.896-.864 1.845-1.312 2.848a46.66 46.66 0 0 0-1.216 2.912c-.342.96-.512 1.824-.512 2.592 0 .448.064.747.192.896.128.128.309.192.544.192.256 0 .49-.043.704-.128.234-.107.405-.16.512-.16a.477.477 0 0 1 .224.32c.021.128.032.245.032.352a6.76 6.76 0 0 1-1.312.832c-.448.235-.95.352-1.504.352-.512 0-.939-.085-1.28-.256a2.301 2.301 0 0 1-.8-.704 2.76 2.76 0 0 1-.448-1.024 5.709 5.709 0 0 1-.128-1.248c0-.725.096-1.45.288-2.176.042-.17.096-.341.16-.512-.747.576-1.632.992-2.656 1.248a5.556 5.556 0 0 1-1.344-.32 4.23 4.23 0 0 1-1.312-.864c-.406-.341-.779-.79-1.12-1.344-.406.832-.8 1.707-1.184 2.624-.704 2.41-1.238 3.84-1.6 4.288-.342.47-.64.779-.896.928a2.336 2.336 0 0 1-.992-1.088 6.38 6.38 0 0 1-.48-1.408c0-.405.053-.917.16-1.536.128-.619.288-1.301.48-2.048.213-.768.469-1.568.768-2.4a39.82 39.82 0 0 1 .992-2.496c.81-1.877 1.546-3.35 2.208-4.416.682-1.067 1.109-1.643 1.28-1.728.554.17 1.077.555 1.568 1.152a5.75 5.75 0 0 1 1.088 1.92c-.235.576-.843 1.685-1.824 3.328 0 .021-.011.043-.032.064.298 1.216.714 2.08 1.248 2.592.554.555 1.162.875 1.824.96.81-.192 1.472-.565 1.984-1.12a7.662 7.662 0 0 0 1.248-1.76Zm10.55 9.504c-1.216-.128-2.187-.661-2.912-1.6-.725-.939-1.088-2.133-1.088-3.584 0-.853.128-1.739.384-2.656s.619-1.803 1.088-2.656a14.667 14.667 0 0 1 1.664-2.464c.64-.768 1.333-1.43 2.08-1.984 1.173-.875 2.272-1.312 3.296-1.312.683.363 1.355 1.12 2.016 2.272h.288c.085-.021.181-.032.288-.032 1.131 0 1.696 1.003 1.696 3.008 0 1.344-.224 2.624-.672 3.84a11.172 11.172 0 0 1-1.824 3.264 10.771 10.771 0 0 1-2.784 2.496 11.078 11.078 0 0 1-3.52 1.408Zm1.632-10.08c-.363.49-.704 1.024-1.024 1.6-.32.576-.597 1.163-.832 1.76a11.099 11.099 0 0 0-.544 1.696 6.234 6.234 0 0 0-.192 1.44c0 .512.085 1.003.256 1.472.171.47.363.736.576.8a6.965 6.965 0 0 0 2.624-1.184 8.557 8.557 0 0 0 2.08-2.208 10.302 10.302 0 0 0 1.376-2.976c.341-1.11.512-2.293.512-3.552 0-.555-.032-.992-.096-1.312a2.426 2.426 0 0 0-.32-.832 7.051 7.051 0 0 0-2.528 1.344 13.496 13.496 0 0 0-1.888 1.952Zm8.909 3.328c0-1.216.245-2.39.736-3.52a11.002 11.002 0 0 1 1.984-3.04 10.076 10.076 0 0 1 2.816-2.144c1.067-.555 2.165-.832 3.296-.832 1.109 0 1.963.277 2.56.832.597.555.896 1.344.896 2.368 0 .49-.075.97-.224 1.44a4.487 4.487 0 0 1-.544 1.216 3.15 3.15 0 0 1-.768.896c-.299.213-.597.32-.896.32-.256 0-.523-.075-.8-.224a2.29 2.29 0 0 1-.64-.64c1.429-1.301 2.144-2.485 2.144-3.552 0-.619-.245-.928-.736-.928-.427 0-.96.203-1.6.608-.64.405-1.259.939-1.856 1.6a11.196 11.196 0 0 0-2.112 3.424 10.922 10.922 0 0 0-.704 3.904c0 1.728.384 2.763 1.152 3.104.32-.043.693-.139 1.12-.288a13.7 13.7 0 0 0 1.376-.576c.491-.256.992-.544 1.504-.864.533-.32 1.045-.661 1.536-1.024a.8.8 0 0 1 .224.288.796.796 0 0 1 .096.352c-.363.448-.779.885-1.248 1.312a15.5 15.5 0 0 1-1.472 1.184c-.512.341-1.013.63-1.504.864-.469.256-.885.416-1.248.48a4.49 4.49 0 0 1-1.984-.672 5.789 5.789 0 0 1-1.632-1.44 7.797 7.797 0 0 1-1.088-2.048 7.54 7.54 0 0 1-.384-2.4Zm31.742-4.192c-.342.021-.758.245-1.248.672-.491.405-1.024.939-1.6 1.6a55.624 55.624 0 0 0-1.76 2.144c-.598.79-1.184 1.579-1.76 2.368-.555.768-1.078 1.493-1.568 2.176a28.15 28.15 0 0 1-1.248 1.632 3.426 3.426 0 0 1-1.216-.832 3.408 3.408 0 0 1-.736-1.408c.106-.661.256-1.344.448-2.048.192-.725.437-1.472.736-2.24.32-.768.704-1.568 1.152-2.4a28.593 28.593 0 0 1 1.696-2.688c-.32.021-.758.256-1.312.704-.555.427-1.152.992-1.792 1.696a34.167 34.167 0 0 0-1.985 2.336 61.24 61.24 0 0 0-1.919 2.528 73.115 73.115 0 0 0-1.984 2.912c-.512.832-.886 1.323-1.12 1.472-.555-.405-.939-.843-1.152-1.312a6.682 6.682 0 0 1-.48-1.568c.021-.512.096-1.152.224-1.92.149-.768.352-1.557.608-2.368a31.547 31.547 0 0 1 1.888-4.64 116.39 116.39 0 0 1 2.272-4.224c.597.128 1.13.33 1.6.608.49.277 1.002.683 1.536 1.216-.214.661-.544 1.365-.992 2.112-.448.725-.918 1.493-1.408 2.304-.491.81-.939 1.643-1.344 2.496a9.068 9.068 0 0 0-.8 2.592c.597-.853 1.301-1.835 2.111-2.944a55.952 55.952 0 0 1 2.529-3.136c.874-.981 1.738-1.813 2.592-2.496.853-.683 1.621-1.024 2.304-1.024.256 0 .533.043.832.128.298.085.576.192.832.32s.469.256.64.384c.17.107.266.192.288.256-.107.427-.363 1.013-.768 1.76-.384.725-.8 1.493-1.249 2.304-.447.81-.863 1.6-1.247 2.368-.384.747-.608 1.344-.672 1.792 1.045-1.43 2.026-2.72 2.944-3.872.917-1.173 1.781-2.176 2.592-3.008.81-.832 1.557-1.472 2.24-1.92.704-.448 1.365-.672 1.984-.672.426 0 .821.117 1.184.352.384.213.65.533.8.96-.192.64-.512 1.408-.96 2.304-.427.896-.864 1.845-1.312 2.848a46.66 46.66 0 0 0-1.216 2.912c-.342.96-.512 1.824-.512 2.592 0 .448.064.747.192.896.128.128.309.192.544.192.256 0 .49-.043.704-.128.234-.107.405-.16.512-.16a.477.477 0 0 1 .224.32c.021.128.032.245.032.352a6.76 6.76 0 0 1-1.312.832c-.448.235-.95.352-1.504.352-.512 0-.939-.085-1.28-.256a2.301 2.301 0 0 1-.8-.704 2.76 2.76 0 0 1-.448-1.024 5.709 5.709 0 0 1-.128-1.248c0-.725.096-1.44.288-2.144.192-.725.416-1.408.672-2.048.277-.661.565-1.27.864-1.824.298-.576.554-1.088.768-1.536Zm12.116 3.648c-.021.021-.042.032-.064.032-.448.213-.842.341-1.184.384-.832-.107-1.45-.363-1.856-.768-.405-.405-.608-.928-.608-1.568 0-.619.171-1.29.512-2.016a9.268 9.268 0 0 1 1.312-2.08 7.929 7.929 0 0 1 1.888-1.6c.704-.448 1.408-.672 2.112-.672.768 0 1.344.235 1.728.704.064.085.128.181.192.288.214-.277.448-.533.704-.768.278 0 .576.032.896.096.32.064.619.15.896.256.299.085.555.192.768.32.214.107.374.224.48.352-.384.939-.81 1.867-1.28 2.784a64.012 64.012 0 0 0-1.312 2.72c-.405.875-.746 1.75-1.024 2.624a8.456 8.456 0 0 0-.416 2.56c0 .448.032.843.096 1.184.086.32.171.597.256.832.086.213.16.395.224.544.086.15.128.277.128.384 0 .021-.021.053-.064.096-.021.021-.042.032-.064.032-.149 0-.341-.032-.576-.096a6.282 6.282 0 0 1-.8-.288 9.932 9.932 0 0 1-.864-.384 9.957 9.957 0 0 1-.8-.48 2.59 2.59 0 0 1-.832-1.28c-.128-.512-.192-.95-.192-1.312 0-.448.054-.832.16-1.152-.085 0-.277.17-.576.512a26.76 26.76 0 0 0-.992 1.216 72.54 72.54 0 0 1-1.792 2.368 4.597 4.597 0 0 1-.8.704c-.234.17-.426.267-.576.288a4.302 4.302 0 0 1-1.088-.224 4.277 4.277 0 0 1-1.056-.48 4.208 4.208 0 0 1-.864-.768 2.536 2.536 0 0 1-.48-1.024c0-.597.043-1.077.128-1.44.086-.363.235-.853.448-1.472.235-.619.694-1.173 1.376-1.664.192 0 .416.021.672.064.256.021.512.075.768.16.278.085.534.192.768.32.256.107.47.256.64.448-.192.213-.469.81-.832 1.792-.362.96-.544 1.579-.544 1.856 0 .17.022.299.064.384.064.085.118.15.16.192.32-.128.726-.48 1.216-1.056.491-.576 1.174-1.461 2.048-2.656.214-.299.47-.64.768-1.024.043-.064.086-.139.128-.224Zm3.264-6.144a7.633 7.633 0 0 0-.064-.128c-.106-.107-.309-.181-.608-.224-.469.107-.949.341-1.44.704a7.65 7.65 0 0 0-1.344 1.28c-.384.47-.704.96-.96 1.472-.234.49-.352.907-.352 1.248 0 .597.32.896.96.896.256 0 .512-.053.768-.16.256-.085.502-.181.736-.288l.64-1.024c.256-.47.47-.939.64-1.408.086-.256.192-.555.32-.896.15-.363.331-.736.544-1.12.043-.107.096-.224.16-.352Zm14.006 4.48c.981-1.664 1.536-2.667 1.664-3.008.149-.363.32-.736.512-1.12.213-.384.448-.768.704-1.152.277-.405.597-.779.96-1.12.277 0 .576.032.896.096.32.064.619.15.896.256.299.085.555.192.768.32.213.107.373.224.48.352a36.336 36.336 0 0 1-1.28 2.784 76.79 76.79 0 0 0-1.312 2.688 1.293 1.293 0 0 1-.192.32l-.256.64c-.107.235-.235.576-.384 1.024-.149.448-.299.917-.448 1.408-.149.49-.277.97-.384 1.44-.085.47-.128.843-.128 1.12 0 .17.021.299.064.384.064.085.117.15.16.192.32-.128.725-.48 1.216-1.056.491-.576 1.173-1.461 2.048-2.656.213-.299.459-.64.736-1.024.299-.384.597-.79.896-1.216.299-.448.576-.907.832-1.376.277-.47.501-.939.672-1.408.085-.256.192-.555.32-.896.149-.363.32-.736.512-1.12.213-.384.448-.768.704-1.152.277-.405.597-.779.96-1.12.277 0 .576.032.896.096.32.064.619.15.896.256.299.085.555.192.768.32.213.107.373.224.48.352a36.336 36.336 0 0 1-1.28 2.784 62.82 62.82 0 0 0-1.312 2.72c-.405.875-.747 1.75-1.024 2.624a8.456 8.456 0 0 0-.416 2.56c0 .448.032.843.096 1.184.085.32.171.597.256.832.085.213.16.395.224.544.085.15.128.277.128.384 0 .021-.021.053-.064.096-.021.021-.043.032-.064.032-.149 0-.341-.032-.576-.096a6.228 6.228 0 0 1-.8-.288 9.932 9.932 0 0 1-.864-.384 9.957 9.957 0 0 1-.8-.48 2.583 2.583 0 0 1-.832-1.28c-.128-.512-.192-.95-.192-1.312 0-.448.053-.832.16-1.152-.085 0-.277.17-.576.512-.299.341-.629.747-.992 1.216a77.116 77.116 0 0 1-1.792 2.368 4.597 4.597 0 0 1-.8.704c-.235.17-.427.267-.576.288a4.302 4.302 0 0 1-1.088-.224 4.244 4.244 0 0 1-1.056-.48 4.208 4.208 0 0 1-.864-.768 2.51 2.51 0 0 1-.48-1.024c0-.597.021-1.088.064-1.472.021-.299.064-.619.128-.96a6.62 6.62 0 0 0-.32.352c-.299.341-.629.747-.992 1.216a77.116 77.116 0 0 1-1.792 2.368 4.597 4.597 0 0 1-.8.704c-.235.17-.427.267-.576.288a4.302 4.302 0 0 1-1.088-.224 4.244 4.244 0 0 1-1.056-.48 4.208 4.208 0 0 1-.864-.768 2.51 2.51 0 0 1-.48-1.024c0-.597.011-1.088.032-1.472.043-.384.117-.8.224-1.248.192-.81.544-1.653 1.056-2.528s1.109-1.557 1.792-2.048c.192 0 .416.021.672.064.256.021.512.075.768.16.277.085.533.192.768.32.256.107.469.256.64.448-.192.213-.661 1.259-1.408 3.136-.747 1.877-1.12 2.955-1.12 3.232 0 .17.021.299.064.384.064.085.117.15.16.192.32-.128.725-.48 1.216-1.056.491-.576 1.173-1.461 2.048-2.656.213-.299.811-1.27 1.792-2.912Z" fill="#fff"/></svg><svg fill="none" viewBox="0 0 27 19" id="vk" xmlns="http://www.w3.org/2000/svg"><path d="M14.706 19C5.48 19 .219 11.868 0 0h4.62c.153 8.71 3.56 12.4 6.258 13.161V0h4.35v7.513c2.665-.324 5.465-3.747 6.41-7.513h4.35a15.495 15.495 0 0 1-2.084 5.432c-1.018 1.63-2.324 3.005-3.835 4.04 1.687.945 3.177 2.283 4.372 3.925A15.79 15.79 0 0 1 27 19h-4.79c-.442-1.781-1.34-3.376-2.582-4.583-1.242-1.208-2.772-1.976-4.4-2.207V19h-.522Z" fill="#fff"/></svg><svg fill="none" viewBox="0 0 27 19" id="youtube" xmlns="http://www.w3.org/2000/svg"><path fill-rule="evenodd" clip-rule="evenodd" d="M2.777 18.439a3.132 3.132 0 0 1-1.281-.763c-.36-.354-.63-.79-.788-1.271-.9-2.488-1.168-12.875.567-14.925A3.328 3.328 0 0 1 3.545.337C8.197-.168 22.578-.1 24.23.505c.465.152.89.407 1.242.748.352.34.623.757.793 1.218.985 2.572 1.018 11.917-.133 14.388a3.166 3.166 0 0 1-1.451 1.479c-1.735.874-19.602.857-21.904.1Zm7.39-4.875 8.341-4.37-8.341-4.403v8.773Z" fill="#fff"/></svg></svg>