<?xml version="1.0" encoding="utf-8"?><svg viewBox="0 0 27 24" xmlns="http://www.w3.org/2000/svg" xmlns:xlink="http://www.w3.org/1999/xlink"><style>:root>svg{display:none}:root>svg:target{display:block}</style><svg fill="none" viewBox="0 0 24 24" id="arrow-left" xmlns="http://www.w3.org/2000/svg"><g stroke="#F48C37"><circle cx="12" cy="12" r="10" transform="rotate(90 12 12)"/><path d="m13.5 15-3-3 3-3" stroke-linecap="round" stroke-linejoin="round"/></g></svg><svg fill="none" viewBox="0 0 24 24" id="arrow-right" xmlns="http://www.w3.org/2000/svg"><g stroke="#F48C37"><circle cx="12" cy="12" r="10" transform="rotate(-90 12 12)"/><path d="m10.5 9 3 3-3 3" stroke-linecap="round" stroke-linejoin="round"/></g></svg><svg fill="none" viewBox="0 0 24 24" id="search" xmlns="http://www.w3.org/2000/svg"><g stroke="#0C0C0C" stroke-width="1.5"><circle cx="11.5" cy="11.5" r="9.5"/><path d="M18.5 18.5 22 22" stroke-linecap="round"/></g></svg><svg fill="none" viewBox="0 0 16 15" id="star" xmlns="http://www.w3.org/2000/svg"><path d="M6.638.533a1 1 0 0 1 1.769 0l1.637 3.103a1 1 0 0 0 .714.519l3.456.598a1 1 0 0 1 .547 1.682l-2.445 2.516a1 1 0 0 0-.273.839l.5 3.472a1 1 0 0 1-1.431 1.04l-3.148-1.548a1 1 0 0 0-.883 0l-3.148 1.548a1 1 0 0 1-1.43-1.04L3 9.79a1 1 0 0 0-.272-.84L.284 6.436A1 1 0 0 1 .83 4.753l3.457-.598a1 1 0 0 0 .714-.52L6.638.534Z" fill="#F48C37"/></svg><svg fill="none" viewBox="0 0 27 19" id="vk" xmlns="http://www.w3.org/2000/svg"><path d="M14.706 19C5.48 19 .219 11.868 0 0h4.62c.153 8.71 3.56 12.4 6.258 13.161V0h4.35v7.513c2.665-.324 5.465-3.747 6.41-7.513h4.35a15.495 15.495 0 0 1-2.084 5.432c-1.018 1.63-2.324 3.005-3.835 4.04 1.687.945 3.177 2.283 4.372 3.925A15.79 15.79 0 0 1 27 19h-4.79c-.442-1.781-1.34-3.376-2.582-4.583-1.242-1.208-2.772-1.976-4.4-2.207V19h-.522Z" fill="#fff"/></svg><svg fill="none" viewBox="0 0 27 19" id="youtube" xmlns="http://www.w3.org/2000/svg"><path fill-rule="evenodd" clip-rule="evenodd" d="M2.777 18.439a3.132 3.132 0 0 1-1.281-.763c-.36-.354-.63-.79-.788-1.271-.9-2.488-1.168-12.875.567-14.925A3.328 3.328 0 0 1 3.545.337C8.197-.168 22.578-.1 24.23.505c.465.152.89.407 1.242.748.352.34.623.757.793 1.218.985 2.572 1.018 11.917-.133 14.388a3.166 3.166 0 0 1-1.451 1.479c-1.735.874-19.602.857-21.904.1Zm7.39-4.875 8.341-4.37-8.341-4.403v8.773Z" fill="#fff"/></svg></svg>